SplineFontDB: 3.0
FontName: NeutonItalic2
FullName: Neuton Italic 2
FamilyName: Neuton
Weight: Medium
Copyright: Created by Brian M Zick, with FontForge 2.0 (http://fontforge.sf.net)
UComments: "2010-5-9: Created." 
Version: 003.000
ItalicAngle: -7
UnderlinePosition: -110
UnderlineWidth: 55
Ascent: 790
Descent: 234
LayerCount: 3
Layer: 0 0 "Back"  1
Layer: 1 0 "Fore"  0
Layer: 2 0 "Board"  0
NeedsXUIDChange: 1
XUID: [1021 453 1782528420 15912843]
FSType: 0
OS2Version: 0
OS2_WeightWidthSlopeOnly: 0
OS2_UseTypoMetrics: 1
CreationTime: 1273463161
ModificationTime: 1286166555
PfmFamily: 17
TTFWeight: 500
TTFWidth: 5
LineGap: 92
VLineGap: 92
OS2TypoAscent: 0
OS2TypoAOffset: 1
OS2TypoDescent: 0
OS2TypoDOffset: 1
OS2TypoLinegap: 92
OS2WinAscent: 0
OS2WinAOffset: 1
OS2WinDescent: 0
OS2WinDOffset: 1
HheadAscent: 0
HheadAOffset: 1
HheadDescent: 0
HheadDOffset: 1
OS2Vendor: 'PfEd'
Lookup: 4 0 1 "'liga' Standard Ligatures in Latin lookup 0"  {"'liga' Standard Ligatures in Latin lookup 0-1"  "'liga' Standard Ligatures in Latin lookup 0-2"  } ['liga' ('DFLT' <'dflt' > 'latn' <'dflt' > ) ]
MarkAttachClasses: 1
DEI: 91125
LangName: 1033 
Encoding: UnicodeBmp
UnicodeInterp: none
NameList: Adobe Glyph List
DisplaySize: -24
AntiAlias: 1
FitToEm: 1
WinInfo: 76 19 4
BeginPrivate: 2
FamilyBlues 0 
BlueValues 31 [-21 0 539 544 644 682 753 771]
EndPrivate
Grid
-869.92 670.76 m 0
 1833.44 670.76 l 0
-869.92 598.6 m 0
 1833.44 598.6 l 0
-869.92 -71.96 m 0
 1833.44 -71.96 l 0
-869.92 -131.8 m 0
 1833.44 -131.8 l 0
-869.92 -1.55957 m 0
 1833.44 -1.55957 l 0
-869.92 692.76 m 0
 1833.44 692.76 l 0
-869.92 -207.48 m 0
 1833.44 -207.48 l 0
-869.92 503.56 m 0
 1833.44 503.56 l 0
-869.92 661.08 m 0
 1833.44 661.08 l 0
-869.92 467.48 m 0
 1833.44 467.48 l 0
EndSplineSet
BeginChars: 65536 418

StartChar: A
Encoding: 65 65 0
Width: 642
VWidth: 0
Flags: W
HStem: 0 49<220.188 234> 255 61<258 437> 743 20G<439.5 453.5>
LayerCount: 3
Fore
SplineSet
467 762 m 5
 579 75 l 5
 644 49 l 5
 634 0 l 5
 376 0 l 5
 387 45 l 5
 477 78 l 5
 448 255 l 5
 233 255 l 5
 155 75 l 5
 245 49 l 5
 234 0 l 5
 5 0 l 5
 15 45 l 5
 87 78 l 5
 389 743 l 5
 404 757 429 763 450 763 c 7
 457 763 462 763 467 762 c 5
258 316 m 5
 437 316 l 5
 390 620 l 5
 258 316 l 5
EndSplineSet
Validated: 1
EndChar

StartChar: B
Encoding: 66 66 1
Width: 570
VWidth: 1107
Flags: W
HStem: 0 58<206 389.047> 0 45<23 45.528> 366 51<250 412.24> 687 46<111 133.849> 701 60<284.091 415.616>
LayerCount: 3
Fore
SplineSet
356 366 m 2xa0
 244 366 l 1
 206 58 l 25
 316 58 l 2
 403 58 461 136 471 214 c 0
 480 289 444 366 356 366 c 2xa0
435 412 m 1
 435 407 l 1
 537 400 582 314 572 234 c 0
 558 120 459 0 256 0 c 2xa8
 13 0 l 1
 23 45 l 1
 111 73 l 1
 185 669 l 1
 100 687 l 1
 111 733 l 1x70
 186 746 273 761 362 761 c 3x28
 518 761 571 676 560 585 c 0
 552 522 518 447 435 412 c 1
284 696 m 1
 250 417 l 2
 354 417 l 18
 411 417 451 466 461 551 c 0
 470 626 447 701 325 701 c 3
 313 701 298 699 284 696 c 1
EndSplineSet
Validated: 33
EndChar

StartChar: C
Encoding: 67 67 2
Width: 558
VWidth: 0
Flags: W
HStem: -15 79<287.117 433.981> 711 58<334.429 497.847>
VStem: 541 39<530 559.836>
LayerCount: 3
Fore
SplineSet
184 399 m 4
 156 167 255 64 375 64 c 7
 433 64 498 89 555 138 c 5
 563 129 570 116 573 101 c 5
 495 22 406 -15 324 -15 c 7
 170 -15 41 115 71 357 c 4
 93 536 215 769 445 769 c 7
 511 769 573 752 616 708 c 5
 580 523 l 5
 541 530 l 5
 539 648 l 5
 520 684 474 711 409 711 c 7
 304 711 208 594 184 399 c 4
EndSplineSet
Validated: 33
EndChar

StartChar: D
Encoding: 68 68 3
Width: 666
VWidth: 0
Flags: W
HStem: 0 63<207 396.718> 687 46<111 134.451> 701 62<285.318 455.989>
LayerCount: 3
Fore
SplineSet
285 697 m 5xa0
 207 63 l 5
 313 63 l 6
 478 63 566 207 585 362 c 4
 608 548 535 701 347 701 c 7
 326 701 306 700 285 697 c 5xa0
697 399 m 4
 673 202 515 0 267 0 c 14
 10 0 l 5
 22 45 l 5
 113 78 l 5
 185 669 l 5
 101 687 l 5
 111 733 l 5xc0
 212 752 300 763 373 763 c 7
 655 763 720 586 697 399 c 4
EndSplineSet
Validated: 33
EndChar

StartChar: E
Encoding: 69 69 4
Width: 541
VWidth: 0
Flags: W
HStem: 0 58<209 459> 0 45<27 49.272> 355 57<253 384> 698 55<288 524> 707 46<111 125.518>
VStem: 388 44<257 294.114> 526 40<570 592.424>
LayerCount: 3
Fore
SplineSet
111 753 m 5x6e
 611 753 l 5x6e
 572 562 l 5
 529 570 l 5
 524 698 l 5
 288 698 l 5
 253 412 l 5
 399 412 l 5
 429 486 l 5
 477 490 l 5
 432 257 l 5
 388 248 l 5
 384 355 l 5
 246 355 l 5
 209 58 l 29
 459 58 l 5xb6
 526 199 l 5
 566 190 l 5
 527 0 l 5
 17 0 l 5
 27 45 l 5
 114 73 l 5
 189 682 l 5
 100 707 l 5
 111 753 l 5x6e
EndSplineSet
Validated: 1
EndChar

StartChar: F
Encoding: 70 70 5
Width: 518
VWidth: 0
Flags: W
HStem: 0 45<27 49.272 298.081 314> 350 56<252 383> 698 55<288 522> 707 46<111 125.518>
VStem: 385 45<250 290.107> 527 43<568 592.092>
LayerCount: 3
Fore
SplineSet
111 753 m 1xdc
 611 753 l 1xdc
 570 558 l 1
 527 568 l 1
 522 698 l 1
 288 698 l 1xec
 252 406 l 1
 396 406 l 1
 427 480 l 1
 472 485 l 1
 430 250 l 1
 385 241 l 1
 383 350 l 1
 245 350 l 1
 210 74 l 17
 327 51 l 25
 314 0 l 25
 17 0 l 1
 27 45 l 1
 114 73 l 1
 189 682 l 1
 100 707 l 1
 111 753 l 1xdc
EndSplineSet
Validated: 1
EndChar

StartChar: G
Encoding: 71 71 6
Width: 649
VWidth: 0
Flags: W
HStem: -19 65<303.51 470.721> 254 50<408 432.152> 703 60<344.202 509.242>
VStem: 572 40<497 571.241>
LayerCount: 3
Fore
SplineSet
653 684 m 1
 643 624 627 544 612 486 c 1
 572 497 l 1
 573 614 l 1
 558 646 514 703 423 703 c 3
 324 703 215 632 186 394 c 0
 163 207 236 46 392 46 c 3
 444 46 481 69 494 83 c 1
 512 231 l 1
 396 254 l 1
 408 304 l 1
 688 304 l 1
 677 259 l 9
 611 234 l 25
 590 62 l 17
 534 18 435 -19 324 -19 c 3
 121 -19 46 150 71 352 c 0
 104 619 288 763 455 763 c 3
 552 763 608 728 653 684 c 1
EndSplineSet
Validated: 33
EndChar

StartChar: H
Encoding: 72 72 7
Width: 713
VWidth: 0
Flags: W
HStem: 0 45<27 49.272 274.821 289 441 463.016 687.419 703> 357 62<254 562> 707 46<111 125.518 346.886 374 524 538.518 759.886 787>
DStem2: 105.037 0 202.528 0 0.121869 0.992546<81.3994 371.64 434.031 687.149> 518.037 0 616.528 0 0.121869 0.992546<81.5212 360.689 422.21 687.149>
LayerCount: 3
Fore
SplineSet
289 0 m 1
 17 0 l 1
 27 45 l 1
 114 73 l 1
 189 682 l 1
 100 707 l 1
 111 753 l 1
 385 753 l 1
 374 707 l 1
 287 684 l 1
 254 419 l 1
 570 419 l 1
 602 682 l 1
 513 707 l 1
 524 753 l 1
 798 753 l 1
 787 707 l 1
 700 684 l 1
 625 69 l 1
 714 49 l 1
 703 0 l 1
 429 0 l 1
 441 45 l 1
 527 73 l 1
 562 358 l 1
 247 357 l 1
 211 69 l 1
 302 49 l 1
 289 0 l 1
EndSplineSet
Validated: 1
EndChar

StartChar: I
Encoding: 73 73 8
Width: 304
VWidth: 0
Flags: W
HStem: 0 45<27 49.272 272.717 288> 707 46<111 125.518 346.575 374>
DStem2: 105.037 0 202.528 0 0.121869 0.992546<81.3994 687.149>
LayerCount: 3
Fore
SplineSet
288 0 m 5
 17 0 l 5
 27 45 l 5
 114 73 l 5
 189 682 l 5
 100 707 l 5
 111 753 l 5
 385 753 l 5
 374 707 l 5
 286 684 l 5
 211 69 l 21
 299 49 l 13
 288 0 l 5
EndSplineSet
Validated: 1
EndChar

StartChar: J
Encoding: 74 74 9
Width: 297
VWidth: 0
Flags: W
HStem: 707 46<108 123.231 344.263 372>
LayerCount: 3
Fore
SplineSet
-14 -197 m 1
 -23 -183 -30 -163 -35 -144 c 1
 54 -55 104 22 116 119 c 10
 186 682 l 1
 98 707 l 1
 108 753 l 1
 382 753 l 1
 372 707 l 1
 283 684 l 1
 227 233 l 2
 196 -15 144 -83 -14 -197 c 1
EndSplineSet
Validated: 1
EndChar

StartChar: K
Encoding: 75 75 10
Width: 618
VWidth: 0
Flags: W
HStem: -13 21G<505 557.5> 0 49<277.636 291> 707 46<351.96 375 650.192 674>
LayerCount: 3
Fore
SplineSet
366 158 m 2xa0
 297 308 l 2
 297 308 275 351 262 366 c 9
 263 381 l 17
 281 396 307 421 326 446 c 2
 503 679 l 1
 425 707 l 1
 435 753 l 1
 685 753 l 1
 674 707 l 1
 581 679 l 1
 359 396 l 1
 454 233 l 2
 516 124 546 74 607 50 c 2
 625 43 l 1
 614 1 l 17
 590 -9 568 -13 547 -13 c 3
 463 -13 410 62 366 158 c 2xa0
211 75 m 17
 303 49 l 1
 291 0 l 1
 13 0 l 1x60
 24 45 l 1
 114 78 l 1
 188 677 l 1
 97 707 l 1
 109 753 l 1
 385 753 l 1
 375 707 l 1
 285 679 l 9
 211 75 l 17
EndSplineSet
Validated: 1
EndChar

StartChar: L
Encoding: 76 76 11
Width: 536
VWidth: 0
Flags: W
HStem: 0 58<213 435> 0 45<30 52.272> 707 46<355.96 379>
LayerCount: 3
Fore
SplineSet
389 753 m 21x60
 379 707 l 5
 289 679 l 5
 213 58 l 29
 435 58 l 5xa0
 519 211 l 5
 561 200 l 5
 517 0 l 5
 20 0 l 5
 30 45 l 5
 117 73 l 5
 191 677 l 5
 100 707 l 5
 113 753 l 5
 389 753 l 21x60
EndSplineSet
Validated: 1
EndChar

StartChar: M
Encoding: 77 77 12
Width: 837
VWidth: 0
Flags: W
HStem: 0 45<19 41.016 233.821 248 573 595.016 815.419 831> 707 46<139 152.518 861.886 889>
LayerCount: 3
Fore
SplineSet
388 18 m 24,0,-1
216 682 m 9,1,-1
 127 707 l 1,2,-1
 139 753 l 1,3,-1
 340 753 l 1,4,-1
 365 636 l 25,5,-1
 441 187 l 1,6,-1
 655 656 l 25,7,-1
 701 753 l 9,8,-1
 900 753 l 17,9,-1
 889 707 l 1,10,-1
 802 684 l 1,11,-1
 753 69 l 17,12,-1
 842 49 l 9,13,-1
 831 0 l 1,14,-1
 562 0 l 1,15,-1
 573 45 l 1,16,-1
 659 73 l 1,17,-1
 697 608 l 1,18,-1
 434 31 l 1,19,-1
 417 21 403 18 388 18 c 3,22,-1
 383 18 376 18 369 19 c 1,25,-1
 266 585 l 1,26,-1
 170 69 l 1,27,-1
 261 49 l 1,28,-1
 248 0 l 1,29,-1
 7 0 l 1,30,-1
 19 45 l 1,31,-1
 105 73 l 1,32,-1
 216 682 l 9,1,-1
EndSplineSet
Validated: 1
EndChar

StartChar: N
Encoding: 78 78 13
Width: 673
VWidth: 0
Flags: W
HStem: -8 21G<485.39 523> 0 45<27 49.272 240.12 256> 707 46<524 537.805 723.198 750>
LayerCount: 3
Fore
SplineSet
100 707 m 1x60
 111 753 l 1
 288 753 l 1
 539 165 l 1
 602 682 l 1
 512 707 l 1
 524 753 l 1
 763 753 l 1
 750 707 l 1
 664 684 l 1
 581 11 l 1
 567 -2 540 -8 506 -8 c 0
 503 -8 498 -8 494 -8 c 1xa0
 240 582 l 5
 177 69 l 5
 267 49 l 1
 256 0 l 1
 17 0 l 1
 27 45 l 1
 114 73 l 5
 188 677 l 5
 100 707 l 1x60
EndSplineSet
Validated: 1
EndChar

StartChar: O
Encoding: 79 79 14
Width: 674
VWidth: 0
Flags: W
HStem: -16 64<274.523 441.467> 712 59<329.656 495.785>
LayerCount: 3
Fore
SplineSet
422 712 m 3
 271 712 208 568 189 410 c 0
 167 232 198 48 354 48 c 3
 507 48 570 198 588 347 c 24
 609 521 566 712 422 712 c 3
702 375 m 0
 676 166 531 -16 322 -16 c 3
 149 -16 46 156 73 375 c 0
 102 608 253 771 453 771 c 3
 635 771 728 587 702 375 c 0
EndSplineSet
Validated: 33
EndChar

StartChar: P
Encoding: 80 80 15
Width: 507
VWidth: 0
Flags: W
HStem: 0 45<23 45.528 295.328 311> 297 55<267.615 387.672> 687 46<111 133.849> 701 59<284.713 420.017>
LayerCount: 3
Fore
SplineSet
579 540 m 0xd0
 561 396 448 297 326 297 c 3
 308 297 288 298 268 301 c 1
 266 316 263 328 266 352 c 1
 275 351 284 352 292 352 c 0
 400 352 459 410 472 518 c 0
 485 621 448 701 338 701 c 3xd0
 317 701 284 697 284 697 c 1
 208 74 l 9
 324 51 l 25
 311 0 l 17
 13 0 l 1
 23 45 l 1
 111 73 l 1
 185 669 l 1
 100 687 l 1
 111 733 l 1xe0
 177 745 269 760 354 760 c 3
 485 760 601 717 579 540 c 0xd0
EndSplineSet
Validated: 33
EndChar

StartChar: Q
Encoding: 81 81 16
Width: 675
VWidth: 0
Flags: W
HStem: -233 66<533.488 599.41> -16 21G<235.5 325.5> 707 64<343.479 494.171>
LayerCount: 3
Fore
SplineSet
424 707 m 3
 298 707 209 600 186 412 c 0
 168 267 196 54 385 41 c 1
 525 82 577 204 594 341 c 0
 616 519 557 707 424 707 c 3
355 -13 m 1
 350 -15 329 -16 322 -16 c 0
 149 -16 52 149 79 368 c 0
 108 602 261 771 460 771 c 3
 639 771 729 593 703 381 c 0
 681 203 572 41 414 -4 c 1
 434 -86 471 -138 612 -167 c 1
 610 -182 606 -201 601 -212 c 1
 567 -230 538 -233 510 -233 c 3
 419 -233 347 -151 355 -13 c 1
EndSplineSet
Validated: 33
EndChar

StartChar: R
Encoding: 82 82 17
Width: 611
VWidth: 0
Flags: W
HStem: -13 21G<503 552.5> 0 45<23 45.528 277.958 288> 325 55<245 326> 685 46<111 133.451> 699 60<283.507 417.831>
LayerCount: 3
Fore
SplineSet
572 567 m 4x28
 562 489 503 404 403 363 c 5
 403 362 l 5
 475 211 l 6
 522 113 543 70 602 47 c 14
 618 41 l 29
 605 -1 l 21
 582 -10 562 -13 543 -13 c 7xa8
 463 -13 417 59 385 153 c 6
 326 325 l 13
 239 325 l 5
 208 76 l 29
 299 50 l 29
 288 0 l 21
 13 0 l 5
 23 45 l 5
 111 73 l 5
 184 667 l 5
 100 685 l 5
 111 731 l 5x70
 187 745 269 759 344 759 c 7
 493 759 589 708 572 567 c 4x28
328 380 m 22
 388 380 453 447 464 533 c 4
 476 632 434 699 345 699 c 7
 309 699 284 695 284 695 c 5
 245 380 l 5
 328 380 l 22
EndSplineSet
Validated: 33
EndChar

StartChar: S
Encoding: 83 83 18
Width: 449
VWidth: 0
Flags: W
HStem: -15 62<146.632 290.055> 717 52<243.458 362.582>
VStem: 60 41<191.338 228> 398 37<544 619.59>
LayerCount: 3
Back
SplineSet
400.51 172.938 m 4
 400.51 297.762 43.7529 320.334 43.7529 544.787 c 4
 43.7529 642.184 125.929 765.702 287.209 765.702 c 4
 419.538 765.702 478.524 691.375 478.524 632.604 c 4
 478.524 595.682 439.473 556.22 385.53 549.475 c 5
 364.963 624.053 321.396 704.151 247.418 704.151 c 4
 183.56 704.151 146.468 651.923 146.468 595.556 c 4
 146.468 445.021 511.457 430.018 511.457 208.613 c 4
 511.457 84.1904 383.371 -12.3018 259.767 -12.3018 c 4
 110.125 -12.3018 24.543 61.0078 24.543 133.146 c 4
 24.543 185.818 80.6787 218.342 125.675 223.895 c 5
 153.755 110.635 222.282 60.2246 285.838 60.2246 c 4
 348.733 60.2246 400.51 99.9082 400.51 172.938 c 4
EndSplineSet
Fore
SplineSet
435 534 m 25
 398 544 l 25
 387 660 l 17
 381 685 346 717 309 717 c 3
 258 717 207 682 197 603 c 0
 176 429 483 442 455 214 c 0
 438 75 314 -15 198 -15 c 27
 124 -15 55 25 34 74 c 9
 60 236 l 17
 101 228 l 1
 112 113 l 1
 125 74 168 47 217 47 c 3
 270 47 347 84 358 174 c 0
 377 331 77 330 105 555 c 0
 122 692 233 769 332 769 c 3
 376 769 427 753 465 708 c 1
 464 703 435 534 435 534 c 25
EndSplineSet
Validated: 33
Layer: 2
SplineSet
454 536 m 29xea
 407 546 l 29
 377 662 l 21
 373 676 321 717 268 717 c 7
 207 717 165 686 165 607 c 7xea
 165 433 515 419 515 214 c 31
 515 72 380 -15 238 -15 c 31
 150 -15 79 18 31 74 c 13
 39 236 l 21
 89 228 l 5
 120 113 l 5
 148 73 199 45 247 45 c 7
 311 45 401 73 401 176 c 7xf4
 401 306 53 334 53 563 c 7
 53 705 167 769 286 769 c 7
 339 769 409 755 464 706 c 5
 464 701 454 536 454 536 c 29xea
EndSplineSet
EndChar

StartChar: T
Encoding: 84 84 19
Width: 563
VWidth: 0
Flags: W
HStem: 0 45<150 172.528 397.821 412> 698 55<167 315 411 564>
VStem: 77 45<558.044 576.097> 568 45<558 583.006>
LayerCount: 3
Fore
SplineSet
97 753 m 17
 656 753 l 1
 613 549 l 1
 568 558 l 1
 564 698 l 1
 411 698 l 1
 334 69 l 1
 425 49 l 1
 412 0 l 1
 141 0 l 1
 150 45 l 1
 238 73 l 1
 315 698 l 1
 167 698 l 1
 122 553 l 1
 77 559 l 1
 97 753 l 17
EndSplineSet
Validated: 1
EndChar

StartChar: U
Encoding: 85 85 20
Width: 688
VWidth: 0
Flags: W
HStem: -16 72<292.703 454.216> 707 46<104 116.805 337.886 365 539 554.231 742.198 769>
LayerCount: 3
Fore
SplineSet
376 56 m 3
 527 56 556 197 568 291 c 2
 617 682 l 1
 529 707 l 1
 539 753 l 1
 781 753 l 1
 769 707 l 1
 683 684 l 1
 633 302 l 2
 604 69 489 -16 335 -16 c 3
 240 -16 101 29 132 284 c 10
 181 682 l 1
 91 707 l 1
 104 753 l 1
 376 753 l 1
 365 707 l 1
 278 684 l 1
 231 299 l 2
 210 126 273 56 376 56 c 3
EndSplineSet
Validated: 33
EndChar

StartChar: V
Encoding: 86 86 21
Width: 644
VWidth: 0
Flags: W
HStem: -9 21G<277.382 309.5> 707 46<327.886 355 506 521.518>
LayerCount: 3
Back
SplineSet
345 -9 m 5
 89 682 l 5
 -3 707 l 5
 3 753 l 5
 328 753 l 5
 322 707 l 5
 220 684 l 5
 419 153 l 5
 611 682 l 5
 500 707 l 5
 505 753 l 5
 785 753 l 5
 780 707 l 5
 697 684 l 5
 439 9 l 5
 414 -4 390 -9 365 -9 c 4
 359 -9 351 -9 345 -9 c 5
EndSplineSet
Fore
SplineSet
281 -9 m 1
 156 682 l 1
 91 707 l 1
 102 753 l 1
 366 753 l 1
 355 707 l 1
 268 684 l 1
 360 158 l 1
 585 682 l 1
 496 707 l 1
 506 753 l 1
 733 753 l 1
 723 707 l 1
 657 684 l 1
 360 9 l 1
 338 -4 320 -9 299 -9 c 0
 294 -9 286 -9 281 -9 c 1
EndSplineSet
Validated: 1
EndChar

StartChar: W
Encoding: 87 87 22
Width: 927
VWidth: 0
Flags: W
HStem: -9 21G<235.685 264.5 592.066 619.5> 707 46<319.886 347 790 804.231>
LayerCount: 3
Fore
SplineSet
621 732 m 1
 673 174 l 1
 867 682 l 1
 779 707 l 1
 790 753 l 1
 1016 753 l 1
 1004 707 l 1
 940 684 l 1
 674 9 l 1
 652 -4 630 -9 609 -9 c 0
 604 -9 599 -9 594 -9 c 1
 538 570 l 1
 321 9 l 1
 299 -4 275 -9 254 -9 c 0
 249 -9 243 -9 238 -9 c 1
 158 682 l 1
 91 707 l 1
 101 753 l 1
 359 753 l 1
 347 707 l 1
 260 684 l 1
 318 165 l 1
 531 717 l 1
 554 730 580 734 604 734 c 3
 609 734 617 733 621 732 c 1
EndSplineSet
Validated: 1
EndChar

StartChar: X
Encoding: 88 88 23
Width: 605
VWidth: 0
Flags: W
HStem: 0 49<228.902 232 348 359.484> 707 46<346.96 370 462 476.805>
LayerCount: 3
Fore
SplineSet
407 394 m 1
 539 69 l 1
 607 49 l 1
 594 0 l 1
 336 0 l 1
 348 45 l 1
 435 73 l 1
 333 316 l 1
 154 69 l 1
 243 49 l 1
 232 0 l 1
 5 0 l 1
 17 45 l 1
 81 73 l 1
 301 368 l 1
 168 677 l 1
 105 707 l 1
 117 753 l 1
 382 753 l 1
 370 707 l 1
 280 679 l 1
 377 450 l 1
 541 682 l 1
 451 707 l 1
 462 753 l 1
 690 753 l 1
 680 707 l 1
 613 684 l 1
 407 394 l 1
EndSplineSet
Validated: 1
EndChar

StartChar: Y
Encoding: 89 89 24
Width: 610
VWidth: 0
Flags: W
HStem: 0 49<420.328 438> 707 46<334.133 360 471 485.518>
LayerCount: 3
Fore
SplineSet
400 320 m 1
 369 69 l 1
 449 49 l 1
 438 0 l 1
 183 0 l 1
 194 45 l 1
 273 73 l 1
 301 306 l 1
 170 682 l 1
 104 707 l 1
 116 753 l 1
 371 753 l 1
 360 707 l 1
 277 684 l 1
 380 388 l 1
 549 682 l 1
 460 707 l 1
 471 753 l 1
 694 753 l 1
 683 707 l 1
 618 684 l 1
 400 320 l 1
EndSplineSet
Validated: 1
EndChar

StartChar: Z
Encoding: 90 90 25
Width: 507
VWidth: 0
Flags: W
HStem: 0 61<120 408> 696 57<195 464>
LayerCount: 3
Fore
SplineSet
123 753 m 25
 589 753 l 25
 584 707 l 17
 120 61 l 9
 408 61 l 25
 491 206 l 25
 532 196 l 17
 479 0 l 9
 9 0 l 25
 12 63 l 17
 464 696 l 9
 195 696 l 25
 137 547 l 25
 94 558 l 17
 95 563 123 753 123 753 c 25
EndSplineSet
Validated: 1
EndChar

StartChar: a
Encoding: 97 97 26
Width: 667
VWidth: 0
Flags: HWO
HStem: -11 75.5195<133.783 170.536> 25.4805 39.0391<435.669 458.516> 479.24 39.6797<219.224 273.182> 522.6 20G<350.973 384.893>
LayerCount: 3
Back
SplineSet
414 537.88 m 1
 416.933 538.467 421.04 538.76 426.32 538.76 c 0
 452.133 538.76 469.146 524.387 477.36 495.64 c 1
 462.4 362.76 l 1
 448.907 324.04 438.64 288.547 431.6 256.28 c 128
 424.56 224.013 421.04 194.973 421.04 169.16 c 0
 421.04 127.507 430.133 94.9473 448.32 71.4805 c 1
 457.707 77.3467 466.947 81.3066 476.04 83.3604 c 128
 485.133 85.4131 497.013 86.4404 511.68 86.4404 c 1
 511.68 65.3203 l 1
 496.427 65.3203 458.88 37.1602 399.04 -19.1602 c 1
 370.88 -19.1602 349.76 -8.45312 335.68 12.96 c 128
 321.6 34.373 314.56 67.96 314.56 113.72 c 1
 330.4 151.854 338.32 179.72 338.32 197.32 c 0
 338.32 203.187 337.44 208.467 335.68 213.16 c 1
 348.88 227.24 l 1
 363.84 318.76 l 1
 363.84 342.813 354.453 361.587 335.68 375.08 c 0
 332.16 378.013 327.467 379.48 321.6 379.48 c 0
 303.413 379.48 279.36 361.88 249.44 326.68 c 1
 201.04 198.2 l 1
 243.28 56.5195 l 1
 245.04 48.3066 245.92 40.9727 245.92 34.5195 c 0
 245.92 13.9873 235.947 -1.85352 216 -13 c 1
 152.64 -13 l 2
 145.013 -13 136.947 1.08008 128.44 29.2402 c 128
 119.933 57.4004 110.987 99.6396 101.6 155.96 c 1
 116.56 227.24 l 1
 128.88 234.28 l 1
 144.133 290.6 161.146 330.493 179.92 353.96 c 2
 279.36 474.52 l 1
 414 537.88 l 1
EndSplineSet
Fore
SplineSet
178 184 m 3x70
 178 115.883 180.941 65 215 65 c 3
 291 65 376 274 386 424 c 1
 374 446 348.249 470 316 470 c 3
 220 470 178 292.019 178 184 c 3x70
418 504 m 1
 424 504 l 1
 450 552 l 1
 492 542 l 1x74
 445 153 l 2
 442.099 128.985 440 102 440 88 c 3
 440 64 447 53 464 53 c 3
 477 53 491 55 520 70 c 1
 532 42 l 1
 513 21 482 -20 420 -20 c 3
 381 -20 350 -1 350 62 c 3xb8
 350 90 358 127 364 150 c 1
 356 150 l 1
 338 86 262.394 -14 181 -14 c 3
 108.973 -14 86 55.8945 86 132 c 3
 86 282.013 198 533 346 533 c 3
 381.228 533 404 520 418 504 c 1
EndSplineSet
Validated: 524289
Layer: 2
SplineSet
178 184 m 7x70
 178 115.883 180.941 65 215 65 c 7
 291 65 376 274 386 424 c 5
 374 446 348.249 470 316 470 c 7
 220 470 178 292.019 178 184 c 7x70
418 504 m 5
 424 504 l 5
 450 552 l 5
 492 542 l 5x74
 445 153 l 6
 442.099 128.985 440 102 440 88 c 7
 440 64 447 53 464 53 c 7
 477 53 491 55 520 70 c 5
 532 42 l 5
 513 21 482 -20 420 -20 c 7
 381 -20 350 -1 350 62 c 7xb8
 350 90 358 127 364 150 c 5
 356 150 l 5
 338 86 262.394 -14 181 -14 c 7
 108.973 -14 86 55.8945 86 132 c 7
 86 282.013 198 533 346 533 c 7
 381.228 533 404 520 418 504 c 5
EndSplineSet
EndChar

StartChar: b
Encoding: 98 98 27
Width: 528
VWidth: 0
Flags: W
HStem: -14 67<153.427 283.294> 460 79<262.482 333.645> 706 44<38 68.736> 744 20G<38 216>
VStem: 365 102<191.872 422.685>
LayerCount: 3
Back
SplineSet
178.095 153 m 10
 251.5 751 l 5
 241.5 764 l 5
 73.5 750 l 5
 67.5 705.5 l 5
 149.5 689.5 l 13
 95 235 l 18
 82.6865 132.313 78 104.064 78 73 c 3
 78 18.9912 97.208 -13 139 -13 c 3
 203.382 -13 238 15 266 47 c 1
 254 77 l 1
 241.1 67.8926 219.359 63 199.5 63 c 3
 178.477 63 173.934 75.5732 173.934 99 c 3
 173.934 114.587 175.788 134.206 178.095 153 c 10
EndSplineSet
Fore
SplineSet
216 751 m 1xd8
 186 510 l 1
 156 357 l 1
 162 357 l 1
 186 456 255 539 330 539 c 3
 413 539 467 444 467 323 c 3
 467 135 350 -14 176 -14 c 19
 132 -14 69 -1 34 30 c 9
 114 690 l 17
 32 706 l 1
 38 750 l 1xe8
 206 764 l 1
 216 751 l 1xd8
365 304 m 3
 365 379 348 460 291 460 c 3
 238 460 166 340 142 150 c 10
 135 93 l 17
 152 68 190 53 233 53 c 3
 288 53 365 103 365 304 c 3
EndSplineSet
Validated: 1
EndChar

StartChar: c
Encoding: 99 99 28
Width: 418
VWidth: 0
Flags: W
HStem: -18 77<193.361 293.847> 481 58<218.229 310.812>
VStem: 50 97<111.231 332.602> 333 70<423.046 458.627>
LayerCount: 3
Fore
SplineSet
333 384 m 1
 332 409 323 481 268 481 c 3
 191 481 147 372 147 236 c 3
 147 138 167 59 258 59 c 3
 298 59 344 101 356 121 c 1
 361 121 372 103 375 97 c 1
 355 36 289 -18 205 -18 c 3
 94 -18 50 82 50 201 c 3
 50 390 180 539 297 539 c 3
 371 539 403 501 403 458 c 0
 403 454 402 450 402 446 c 0
 398 410 374 388 333 384 c 1
EndSplineSet
Validated: 1
EndChar

StartChar: d
Encoding: 100 100 29
Width: 548
VWidth: 0
Flags: HW
HStem: -20 72<395 490.289> -13 77<151 262.924> 473 64<227.601 310.315> 706 44<343 373.288> 745 20G<343 521>
VStem: 61 96<102.91 314.17> 350 89<52.4748 138.24>
LayerCount: 3
Back
SplineSet
178 184 m 7x70
 178 115.883 180.941 65 215 65 c 7
 291 65 376 274 386 424 c 5
 374 446 348.249 470 316 470 c 7
 220 470 178 292.019 178 184 c 7x70
418 504 m 5
 424 504 l 5
 450 552 l 5
 492 542 l 5x74
 445 153 l 6
 442.099 128.985 440 102 440 88 c 7
 440 64 447 53 464 53 c 7
 477 53 491 55 520 70 c 5
 532 42 l 5
 513 21 482 -20 420 -20 c 7
 381 -20 350 -1 350 62 c 7xb8
 350 90 358 127 364 150 c 5
 356 150 l 5
 338 86 262.394 -14 181 -14 c 7
 108.973 -14 86 55.8945 86 132 c 7
 86 282.013 198 533 346 533 c 7
 381.228 533 404 520 418 504 c 5
EndSplineSet
Fore
SplineSet
178 183 m 3x70
 178 114.883 179.941 66 214 66 c 3
 290 66 372 259 386 420 c 1
 368 458 344.558 468 312 468 c 3
 230 468 178 318.059 178 183 c 3x70
396 513 m 1
 405 514 l 9
 418 690 l 25x66
 337 706 l 25
 343 750 l 17x76
 509 765 l 1
 521 751 l 1
 443 142 l 2
 441 124 439 100 439 88 c 3
 439 62 449 52 467 52 c 0
 481 52 509 64 520 70 c 1
 532 42 l 1
 493 -5 459 -20 421 -20 c 3xae
 369 -20 350 14 350 64 c 3
 350 89.5196 356.95 124.15 361 139 c 2
 364 150 l 1
 356 150 l 1
 338 86 262.395 -15 181 -15 c 3
 108.973 -15 86 54.8945 86 131 c 3
 86 264 189.97 532 340 532 c 3
 375.228 532 390 524 396 513 c 1
EndSplineSet
Validated: 524289
EndChar

StartChar: e
Encoding: 101 101 30
Width: 395
VWidth: 0
Flags: HW
HStem: -18 80<163.055 263.211> 483 56<187.139 298.875>
VStem: 24 94<113.139 233.027 272 334.35> 277 93<361.076 475.361>
LayerCount: 3
Fore
SplineSet
124 272 m 1
 232 297 282 362 282 415 c 3
 282 448 272 483 238 483 c 3
 196 483 134 424 124 272 c 1
29 210 m 3
 29 366 137 539 272 539 c 3
 335 539 375 504 375 433 c 3
 375 321 234 252 123 228 c 1
 123 114 159 62 238 62 c 3
 279 62 318 90 345 133 c 1
 367 114 l 1
 346 52 272 -18 184 -18 c 27
 76 -18 29 72 29 210 c 3
EndSplineSet
Validated: 1
EndChar

StartChar: f
Encoding: 102 102 31
Width: 313
VWidth: 0
Flags: W
HStem: -235 77<-54.3975 34.6808> 475 54<234 334> 475 41<68 91.1331> 645 21G<384.5 403> 702 77<283.102 363.695>
LayerCount: 3
Fore
SplineSet
75 15 m 2xb8
 131 475 l 1
 59 475 l 1
 68 516 l 1xb8
 139 538 l 1
 164 670 270 779 353 779 c 3
 399 779 433 758 433 719 c 27
 433 685 417 665 389 645 c 1
 380 667 350 702 312 702 c 3
 262 702 247 635 240 579 c 2
 234 529 l 1
 347 529 l 1
 334 475 l 1xd8
 228 475 l 1
 177 55 l 2
 148 -179 22 -235 -43 -235 c 11
 -85 -235 -120 -209 -120 -169 c 27
 -120 -139 -107 -123 -79 -103 c 1
 -70 -124 -41 -158 -2 -158 c 19
 30 -158 57 -126 75 15 c 2xb8
EndSplineSet
Validated: 1
EndChar

StartChar: g
Encoding: 103 103 32
Width: 458
VWidth: 0
Flags: HW
HStem: -234 38<126.406 288.079> 198 46<173.136 256.555> 474 65<363.583 413.167> 493 45<182.55 262.764>
VStem: -40 91<-139.061 -29.8122> 69 79<110.5 168.516 269.769 428.396> 286 83<301.932 469.786> 317 94<-160.741 -73.1009>
LayerCount: 3
Fore
SplineSet
154 356 m 3xde
 154 308 163 244 215 244 c 3
 261 244 284 303 284 356 c 3
 284 416 278 493 221 493 c 3
 178 493 154 435 154 356 c 3xde
354 474 m 1xed
 366 446 369 416 369 387 c 3xee
 369 285 276 198 186 198 c 0
 183 198 181 198 178 198 c 1
 164 189 146 174.031 146 158 c 3
 146 129 411 28 411 -103 c 3
 411 -184 298 -234 201 -234 c 3
 87 -234 -41 -195 -41 -84 c 3
 -41 -32 14 14 112 51 c 1
 112 54 l 1
 84 70 69 96 69 125 c 3
 69 152 92 176 141 211 c 1
 140 214 l 1
 110 226 69 268 69 330 c 3
 69 453 164 538 246 538 c 3xdd
 300 538 328 514 338 500 c 1
 355 512 393 539 433 539 c 3
 452 539 473 521.788 473 500 c 27
 473 469.93 445 445 430 436 c 1
 416 456 377 474 354 474 c 1xed
54 -87 m 3
 54 -148 134 -195 213 -195 c 3
 283 -195 312 -164 312 -127 c 3xcd
 312 -67.9238 220 -12 142 34 c 1
 55 -13 54 -45.9512 54 -87 c 3
EndSplineSet
Validated: 524289
Layer: 2
SplineSet
174 356 m 7xec
 174 308.374 189.914 244 242 244 c 7
 288.098 244 317 303.431 317 356 c 31
 317 415.824 305.079 493 248 493 c 7
 204.988 493 174 435.158 174 356 c 7xec
152 223 m 5
 128 231 96 283.934 96 330 c 7xec
 96 453.199 191 538 273 538 c 7
 372.005 538 396 462.955 396 387 c 23
 396 277.775 294 199 222 199 c 7
 203 199 180 204 175 206 c 5
 169 204 128 173.021 128 149 c 7xf4
 128 88.8672 402 131.532 402 -50 c 7
 402 -168.873 275 -234 159 -234 c 7
 70 -234 -6 -184 7 -81 c 4
 15 -13 63 33 96 47 c 5
 96 52 l 5xec
 70 64 46 88.4512 46 122 c 7xf4
 46 150.16 82 188 152 223 c 5
132 38 m 5
 132 38 99 26 89 -52 c 4
 79 -132 130 -173 193 -173 c 7
 256 -173 324 -158.487 324 -100 c 31
 324 -7.78516 228 15 132 38 c 5
EndSplineSet
EndChar

StartChar: h
Encoding: 104 104 33
Width: 530
VWidth: 0
Flags: W
HStem: -13 76<350 455.156> 435 106<288.219 379.5> 706 44<46 76.736> 744 20G<46 224>
VStem: 310 96<63.1434 276.062> 342 100<230.785 478.5>
LayerCount: 3
Back
SplineSet
239 -14 m 19xd8
 195 -14 132 -1 97 30 c 9
 179 705 l 25
 104 698 l 25
 114 742 l 17xe8
 268 762 l 1
 279 748 l 1
 249 510 l 1
 219 357 l 1
 225 357 l 1
 249 456 318 539 393 539 c 3
 476 539 530 444 530 323 c 3
 530 135 403 -14 239 -14 c 19xd8
428 304 m 3
 428 379 411 460 354 460 c 3
 301 460 229 340 205 150 c 10
 198 93 l 17
 215 68 253 53 296 53 c 3
 351 53 428 103 428 304 c 3
EndSplineSet
Fore
SplineSet
148 140 m 2xd8
 129 0 l 1
 38 -12 l 1
 32 -4 l 1
 70 264 l 9
 122 690 l 17
 40 706 l 1
 46 750 l 1xe8
 214 764 l 1
 224 751 l 1
 194 513 l 9
 158 345 l 17
 165 343 l 1
 199 447 276 541 352 541 c 3
 407 541 442 509 442 448 c 3xd4
 442 431 439 393 437 371 c 2
 410 153 l 2
 408 134 406 115 406 99 c 3
 406 76 410 63 432 63 c 3
 451 63 473 68 486 77 c 1
 498 47 l 1
 470 15 435 -13 371 -13 c 3
 329 -13 310 19 310 73 c 3xd8
 310 104 313 132 327 235 c 2
 338 318 l 1
 342 349 342 374 342 387 c 3xd4
 342 428 330 435 310 435 c 3
 253 435 176 362 148 140 c 2xd8
EndSplineSet
Validated: 1
EndChar

StartChar: i
Encoding: 105 105 34
Width: 274
VWidth: 0
Flags: HW
HStem: -13 76<111 215.716> 468 44<38 68.736> 653 136<149.7 226.66>
VStem: 70 96<63.1434 271.711> 127 121<673.991 765.702>
LayerCount: 3
Back
SplineSet
123.5 235 m 6xd0
 134.5 318 l 1
 138.5 349 138.5 374 138.5 387 c 3xc8
 138.5 428 126.5 435 106.5 435 c 3xd0
 49.5 435 -24.8359 361.105 -55.5 140 c 10
 -74.5 3 l 1
 -165.5 -9 l 1
 -171.5 -1 l 1
 -133.5 267 l 1
 -112 451.5 l 1
 -193.5 467.5 l 1
 -187.5 512 l 1xb0
 -20.5 526 l 1
 -9.5 513 l 9
 -45.5 345 l 17
 -38.5 343 l 1
 -10.5 448 72.5 541 148.5 541 c 3
 203.5 541 238.5 508.531 238.5 448 c 3xc8
 238.5 431 235.5 393 233.5 371 c 2
 206.595 153 l 6
 204.275 134.208 202.434 114.587 202.434 99 c 7
 202.434 75.5732 206.977 63 228 63 c 7
 247.859 63 269.6 67.8926 282.5 77 c 5
 294.5 47 l 5
 266.5 15 231.882 -13 167.5 -13 c 7
 125.708 -13 106.5 18.9912 106.5 73 c 7
 106.5 104.064 109.912 132.476 123.5 235 c 6xd0
EndSplineSet
Fore
SplineSet
171 153 m 18xf0
 168 134 166 115 166 99 c 3
 166 76 171 63 192 63 c 3
 212 63 234 68 246 77 c 1
 258 47 l 1
 230 15 196 -13 132 -13 c 3
 90 -13 70 19 70 73 c 3
 70 104 75 132 88 235 c 10
 114 452 l 17
 32 468 l 1
 38 512 l 1
 206 526 l 1
 216 513 l 1
 171 153 l 18xf0
196 787 m 27
 226 787 248 759 248 729 c 24
 248 688 219 651 178 651 c 19
 148 651 127 677 127 707 c 0xe8
 127 744 155 787 196 787 c 27
EndSplineSet
Validated: 1
EndChar

StartChar: j
Encoding: 106 106 35
Width: 286
VWidth: 0
Flags: HW
HStem: -235 77<-53.8163 34.4253> 468 44<57 87.736> 646 143<167.451 246.465>
VStem: 142 128<669.951 763.122>
LayerCount: 3
Fore
SplineSet
215 789 m 27
 247 789 270 759 270 728 c 24
 270 685 239 646 196 646 c 19
 164 646 142 673 142 705 c 0
 142 744 172 789 215 789 c 27
102 144 m 2
 133 452 l 1
 51 468 l 1
 57 512 l 1
 225 526 l 1
 235 513 l 9
 186 76 l 18
 154.404 -162.054 38 -234 -55 -234 c 3
 -160.171 -234 -163 -148 -92 -118 c 1
 -59 -160 -31.3672 -171 -4 -171 c 3
 57.0332 -171 77.5303 -44.4199 102 144 c 2
EndSplineSet
Validated: 524321
Layer: 2
SplineSet
236.245 528.32 m 1xa0
 182.005 58.2402 l 2
 163.01 -113.36 72.2852 -234 -61.875 -234 c 0
 -105.555 -234 -138.247 -209.04 -133.498 -184.08 c 0
 -130.407 -163.28 -114.627 -144.56 -87.5869 -144.56 c 0x60
 -49.1064 -144.56 -52.8896 -189.28 -1.92969 -189.28 c 0
 32.3906 -189.28 64.1475 -143.52 79.3594 -16.6396 c 2
 134.52 464.88 l 1
 72.1055 475.28 l 1
 81.5107 515.84 l 1
 236.245 528.32 l 1xa0
163.946 687.439 m 1
 171.904 721.76 196.007 740.48 230.326 740.48 c 0
 261.526 740.48 283.185 721.76 275.227 687.439 c 1
 269.348 653.12 244.416 632.32 211.136 632.32 c 0
 177.856 632.32 158.067 653.12 163.946 687.439 c 1
EndSplineSet
EndChar

StartChar: l
Encoding: 108 108 36
Width: 260
VWidth: 0
Flags: W
HStem: -13 76<81 185.716> 706 44<36 66.736> 744 20G<36 214>
VStem: 40 96<63.1434 267.836>
LayerCount: 3
Back
SplineSet
176 690.5 m 25x66
 94.5 705.5 l 25
 101 750.5 l 17x76
 267 765 l 1
 279 751 l 1
 201.5 142 l 2
 199.214 124.034 197.5 100 197.5 88 c 3
 197.5 62 206.5 52.5 224.5 52.5 c 0
 239.5 52.5 266.5 63.5 278 70 c 1
 290 42 l 1
 251 -5 217.5 -20 178.5 -20 c 3xae
 127.255 -20 108 13.5 108 64 c 3
 108 92 113 116 119 139 c 1
 111 139 l 1
 84 36 13 -13 -54 -13 c 3
 -128 -13 -181 58 -181 182 c 3
 -181 378 -46.0791 537 55 537 c 3
 114 537 149 469 149 401 c 1
 155 401 l 9
 176 690.5 l 25x66
133 308 m 1
 122 388 74.085 473 21 473 c 3
 -48 473 -85 332.752 -85 229 c 19
 -85 139 -67.0752 64 -7 64 c 3
 63 64 113 182 133 308 c 1
EndSplineSet
Fore
SplineSet
141 153 m 18xb0
 138 134 136 115 136 99 c 3
 136 76 141 63 162 63 c 3
 182 63 204 68 216 77 c 1
 228 47 l 1
 200 15 166 -13 102 -13 c 3
 60 -13 40 19 40 73 c 3
 40 104 45 132 58 235 c 10
 112 690 l 17
 30 706 l 1
 36 750 l 1xd0
 204 764 l 1
 214 751 l 1
 141 153 l 18xb0
EndSplineSet
Validated: 1
EndChar

StartChar: m
Encoding: 109 109 37
Width: 815
VWidth: 0
Flags: W
HStem: -13 76<635 740.156> 435 106<310.281 401.5 569.385 664.5> 468 44<38 68.288>
VStem: 364 100<281.477 478.5> 595 96<63.1434 276.062> 627 100<230.785 478.5>
LayerCount: 3
Back
SplineSet
600 235 m 2xd0
 611 318 l 1
 615 349 615 374 615 387 c 3xc8
 615 428 603 435 583 435 c 3xd0
 526 435 451.717 361.485 421 140 c 10
 402 3 l 1
 311 -9 l 1
 305 -1 l 1
 343 267 l 1
 364.5 451.5 l 1
 283 467.5 l 1
 289 512 l 1xb0
 456 526 l 1
 467 513 l 9
 431 345 l 17
 438 343 l 1
 472 447 549 541 625 541 c 3
 680 541 715 508.531 715 448 c 3xc8
 715 431 712 393 710 371 c 2
 683.095 153 l 2
 680.775 134.208 678.934 114.587 678.934 99 c 3
 678.934 75.5732 683.477 63 704.5 63 c 3
 724.359 63 746.1 67.8926 759 77 c 1
 771 47 l 1
 743 15 708.382 -13 644 -13 c 3
 602.208 -13 583 18.9912 583 73 c 3
 583 104.064 586.412 132.476 600 235 c 2xd0
EndSplineSet
Fore
SplineSet
431 140 m 10xd8
 412 3 l 1
 321 -9 l 1
 315 -1 l 1
 353 265 l 1
 360 318 l 2
 364 349 364 374 364 387 c 0
 364 428 352 435 332 435 c 3xd8
 275 435 201 361 170 140 c 2
 151 3 l 1
 60 -9 l 1
 54 -1 l 1
 92 267 l 1
 113 452 l 1
 32 468 l 1
 38 512 l 1xb8
 205 526 l 1
 216 513 l 1
 180 345 l 1
 187 343 l 1
 221 447 298 541 374 541 c 3
 429 541 464 509 464 448 c 3
 464 431 458 401 453 379 c 2
 449 360 l 1
 455 358 l 1
 493 459 561 541 637 541 c 3
 692 541 727 509 727 448 c 3xd4
 727 431 724 393 722 371 c 2
 695 153 l 2
 693 134 691 115 691 99 c 3
 691 76 695 63 717 63 c 3
 736 63 758 68 771 77 c 1
 783 47 l 1
 755 15 720 -13 656 -13 c 3
 614 -13 595 19 595 73 c 3xd8
 595 104 598 132 612 235 c 2
 623 318 l 2
 627 349 627 374 627 387 c 3xd4
 627 428 615 435 595 435 c 3
 538 435 462 361 431 140 c 10xd8
EndSplineSet
Validated: 1
EndChar

StartChar: n
Encoding: 110 110 38
Width: 552
VWidth: 0
Flags: W
HStem: -13 76<372 477.156> 435 106<310.281 401.5> 468 44<38 68.736>
VStem: 332 96<63.1434 276.062> 364 100<230.785 478.5>
LayerCount: 3
Fore
SplineSet
349 235 m 6xd0
 360 318 l 5
 364 349 364 374 364 387 c 7xc8
 364 428 352 435 332 435 c 7xd0
 275 435 201 361 170 140 c 14
 151 3 l 5
 60 -9 l 5
 54 -1 l 5
 92 267 l 5
 114 452 l 5
 32 468 l 5
 38 512 l 5xb0
 205 526 l 5
 216 513 l 13
 180 345 l 21
 187 343 l 5
 221 447 298 541 374 541 c 7
 429 541 464 509 464 448 c 7xc8
 464 431 461 393 459 371 c 6
 432 153 l 6
 430 134 428 115 428 99 c 7
 428 76 432 63 454 63 c 7
 473 63 495 68 508 77 c 5
 520 47 l 5
 492 15 457 -13 393 -13 c 7
 351 -13 332 19 332 73 c 7
 332 104 335 132 349 235 c 6xd0
EndSplineSet
Validated: 1
EndChar

StartChar: o
Encoding: 111 111 39
Width: 520
VWidth: 0
Flags: W
HStem: -15 69<212.1 305.668> 472 68<214.536 308.895>
VStem: 61 85<150.568 346.315> 372 87<185.117 381.73>
LayerCount: 3
Back
SplineSet
258 54 m 3
 332.061 54 370 160.637 370 248 c 27
 370 346.379 330.026 472 254 472 c 3
 173.943 472 144 359.703 144 270 c 27
 144 174.747 181.974 54 258 54 c 3
294 540 m 3
 398.235 540 455 438 455 312 c 3
 455 141 352.185 -15 219 -15 c 3
 125.737 -15 57 76.9639 57 200 c 3
 57 357 143.997 540 294 540 c 3
EndSplineSet
Fore
SplineSet
258 472 m 3
 176 472 146 365 146 278 c 27
 146 180 186 54 262 54 c 3
 338 54 372 166 372 256 c 27
 372 351 334 472 258 472 c 3
222 -15 m 3
 118 -15 61 87 61 213 c 3
 61 384 164 540 297 540 c 3
 390 540 459 448 459 325 c 3
 459 168 372 -15 222 -15 c 3
EndSplineSet
Validated: 1
Layer: 2
SplineSet
365 324 m 7
 365 422 340 494 287 494 c 7
 220 494 153 407 153 217 c 4
 153 106 183 29 237 29 c 4
 329 29 365 187 365 324 c 7
219 -16 m 23
 108 -16 50 83 50 209 c 4
 50 380 147 541 311 541 c 7
 413 541 466 445 466 313 c 4
 466 156 379 -16 219 -16 c 23
EndSplineSet
EndChar

StartChar: p
Encoding: 112 112 40
Width: 535
VWidth: 0
Flags: W
HStem: -10 52<184 264.566> 449 90<294.707 389.612> 468 45<31 61.736>
VStem: 369 105<187.691 436.224>
LayerCount: 3
Back
SplineSet
380 236 m 6xd0
 391 319 l 5
 395 350 395 375 395 388 c 7xc8
 395 429 383 436 363 436 c 7xd0
 306 436 231.717 362.485 201 141 c 14
 182 4 l 5
 91 -8 l 5
 85 0 l 5
 123 268 l 5
 144.5 452.5 l 5
 63 468.5 l 5
 69 513 l 5xb0
 236 527 l 5
 247 514 l 13
 211 346 l 21
 218 344 l 5
 252 448 329 542 405 542 c 7
 460 542 495 509.531 495 449 c 7xc8
 495 432 492 394 490 372 c 6
 463.095 154 l 6
 460.775 135.208 458.934 115.587 458.934 100 c 7
 458.934 76.5732 463.477 64 484.5 64 c 7
 504.359 64 526.1 68.8926 539 78 c 5
 551 48 l 5
 523 16 488.382 -12 424 -12 c 7
 382.208 -12 363 19.9912 363 74 c 7
 363 105.064 366.412 133.476 380 236 c 6xd0
EndSplineSet
Fore
SplineSet
91 276 m 1xd0
 107 452 l 1
 25 468 l 1
 31 513 l 1xb0
 198 527 l 1
 209 514 l 9
 173 346 l 17
 180 344 l 1
 219 448 287 539 351 539 c 3
 426 539 474 456 474 336 c 0
 474 74 312 -7 184 -10 c 9
 181 42 l 17
 271 49 369 81 369 326 c 0
 369 410 355 449 318 449 c 3
 260 449 185 293 172 188 c 10
 121 -220 l 1
 30 -232 l 1
 24 -224 l 1
 91 276 l 1xd0
EndSplineSet
Validated: 1
EndChar

StartChar: q
Encoding: 113 113 41
Width: 522
VWidth: 0
Flags: W
HStem: -13 76<190.078 271.848> 473 64<211.332 301.749>
VStem: 61 97<100.723 323.555> 405 89<477.293 526>
LayerCount: 3
Back
SplineSet
377 276 m 1
 392.5 452.5 l 1
 311 468.5 l 1
 317 513 l 1
 484 527 l 1
 495 514 l 9
 459 346 l 17
 466 344 l 1
 505 448 573 539 637 539 c 3
 712 539 760 456 760 336 c 0
 760 74 598 -7 470 -10 c 9
 467 42 l 17
 557 49 655 81 655 326 c 0
 655 410 641 449 604 449 c 3
 546 449 471.123 292.984 458 188 c 10
 407 -220 l 1
 316 -232 l 1
 310 -224 l 1
 377 276 l 1
390.5 452.5 m 1
 309 468.5 l 1
 315 513 l 1
 482 527 l 1
 493 514 l 9
 457 346 l 17
 464 344 l 1
 503 448 571 539 635 539 c 3
 710 539 758 456 758 336 c 0
 758 74 596 -7 468 -10 c 9
 465 42 l 17
 555 49 653 81 653 326 c 0
 653 410 639 449 602 449 c 3
 544 449 469.123 292.984 456 188 c 10
EndSplineSet
Fore
SplineSet
403 -221 m 17
 316 -233 l 1
 310 -225 l 1
 379 309 l 1
 368 376 313 473 249 473 c 3
 183 473 158 329 158 223 c 3
 158 129 181 63 235 63 c 3
 276 63 313 93 321 109 c 1
 340 88 l 1
 323 46 271 -13 194 -13 c 3
 112 -13 61 61 61 184 c 3
 61 350 159 537 283 537 c 3
 363 537 390 459 391 401 c 1
 397 401 l 1
 405 526 l 1
 494 537 l 9
 403 -221 l 17
EndSplineSet
Validated: 1
EndChar

StartChar: r
Encoding: 114 114 42
Width: 373
VWidth: 0
Flags: W
HStem: -9 21G<55 151> 425 114<279.524 353.304> 468 44<38 68.288>
LayerCount: 3
Back
SplineSet
330 401 m 1
 318 416 307 425 289 425 c 3
 263 425 194 373 165 126 c 10
 151 4 l 1
 58 0 l 1
 115 466 l 1
 38 458 l 1
 48 502 l 1
 209 526 l 1
 217 514 l 1
 184 342 l 1
 191 342 l 1
 218 448 268 541 328 541 c 3
 360 541 381 514 381 476 c 3
 381 441 356 416 330 401 c 1
EndSplineSet
Fore
SplineSet
336 404 m 1xc0
 324 412 312 425 293 425 c 3xc0
 225 425 186 253 168 126 c 10
 151 3 l 1
 59 -9 l 1
 55 0 l 1
 92 268 l 1
 113 452 l 1
 32 468 l 1
 38 512 l 1xa0
 205 526 l 1
 216 513 l 1
 180 344 l 1
 187 343 l 1
 215 449 270 539 330 539 c 3
 367 539 383 515 383 487 c 3
 383 461 361 422 336 404 c 1xc0
EndSplineSet
Validated: 1
EndChar

StartChar: s
Encoding: 115 115 43
Width: 329
VWidth: 0
Flags: W
HStem: -21 55<111.943 208.617> 486 55<137.741 226.163>
VStem: 52 74<332.161 458.199> 222 84<64.7966 152.78>
LayerCount: 3
Fore
SplineSet
222 96 m 3
 222 175 52 282 52 386 c 3
 52 466 131 541 220 541 c 3
 286 541 321 514 321 471 c 3
 321 451 300 421 269 405 c 1
 257 429 222 486 178 486 c 3
 153 486 126 470 126 438 c 3
 126 362 306 242 306 127 c 3
 306 57 213 -21 120 -21 c 19
 45 -21 14 7 14 40 c 3
 14 78 43 107 69 118 c 1
 87 86 114 34 158 34 c 3
 201 34 222 61 222 96 c 3
EndSplineSet
Validated: 1
Layer: 2
SplineSet
98.0586 114.5 m 1
 115.753 83.5 143.663 34 188.175 34 c 3
 231.187 34 250.628 62.125 254.435 93.125 c 0
 254.699 95.2816 254.828 97.4467 254.828 99.6204 c 0
 254.828 179.114 82.4736 270.104 82.4736 378.644 c 0
 82.4736 382.738 82.7188 386.856 83.2275 391 c 0
 91.4551 458.011 153 541 250 541 c 3
 321.744 541 352.173 511.65 352.173 478.748 c 0
 352.173 476.512 352.032 474.26 351.755 472 c 0
 348.691 447.051 329.582 421.09 298.728 405 c 1
 286.675 429 251.685 486 207.673 486 c 3
 182.594 486 158.503 469.959 154.824 440 c 0
 154.601 438.184 154.492 436.355 154.492 434.511 c 0
 154.492 359.276 335.751 261.078 335.751 135.742 c 0
 335.751 130.542 335.439 125.294 334.789 120 c 0
 326.067 48.9707 224.422 -21 150.422 -21 c 3
 75.1882 -21 44.3839 6.51082 44.3839 40.3158 c 0
 44.3839 42.6821 44.5348 45.0793 44.832 47.5 c 0
 47.2275 67.0068 61.7871 96 98.0586 114.5 c 1
EndSplineSet
EndChar

StartChar: t
Encoding: 116 116 44
Width: 312
VWidth: 0
Flags: HW
HStem: -13 99<111.5 209.187> 467 53<42 93 193 321> 638 20G<115 213>
VStem: 48 102<87.0886 293.562>
LayerCount: 3
Back
SplineSet
107.991 186.5 m 23xbc
 107.991 217.301 113.46 270 121 297 c 5
 114 297 l 5
 93 224 27.4248 113 -66 113 c 7
 -121 113 -158 146 -158 218 c 7
 -158 235 -157.443 260.682 -154 286 c 6
 -139.038 396 l 5
 -117 577.5 l 13
 -199 593 l 21
 -193 638 l 5
 -26 652.5 l 29
 -15 638.5 l 29
 -51 353 l 22
 -54.335 326.556 -57 292 -57 279 c 7
 -57 237.988 -47 219 -27 219 c 7x7c
 34.6953 219 110.599 296.342 139 520 c 14
 155 646 l 5
 245.5 657.5 l 5
 252 650 l 5
 201.991 270 l 6
 199.271 249.338 197.824 228.868 197.824 212 c 7
 197.824 191.011 201.468 179 222.491 179 c 7
 246.179 179 266.166 189.667 278.5 196 c 5
 290 168 l 5
 273.999 150 238.019 106 177.5 106 c 7
 122.98 106 107.991 145.021 107.991 186.5 c 23xbc
EndSplineSet
Fore
SplineSet
285 90 m 1
 251 32 196 -13 139 -13 c 3
 84 -13 51 22 51 94 c 0
 51 130 52.2559 139.97 61 214 c 2
 91 468 l 1
 26 468 l 1
 40 521 l 1
 98 521 l 1
 113 646 l 9
 203 658 l 17
 210 650 l 1
 190 520 l 1
 309 520 l 1
 294 467 l 1
 183 467 l 1
 156 236 l 2
 152.229 203.739 147 159 147 146 c 0
 147 105 154 82 174 82 c 3
 210 82 236 94 267 117 c 1
 285 90 l 1
EndSplineSet
Validated: 524289
EndChar

StartChar: u
Encoding: 117 117 45
Width: 545
VWidth: 0
Flags: W
HStem: -20 73<373 469.986> -13 106<129.5 225.454> 467 45<30 63.1851>
VStem: 65 101<56 298.344> 331 90<53.6432 225.139>
LayerCount: 3
Back
SplineSet
182 293 m 6xd0
 171 210 l 5
 167 179 167 154 167 141 c 7xc8
 167 100 179 93 199 93 c 7xd0
 256 93 330.336 166.895 361 388 c 14
 380 525 l 5
 471 537 l 5
 477 529 l 5
 439 261 l 5
 417.5 76.5 l 5
 499 60.5 l 5
 493 16 l 5xb0
 326 2 l 5
 315 15 l 13
 351 183 l 21
 344 185 l 5
 316 80 233 -13 157 -13 c 7
 102 -13 67 19.4688 67 80 c 7xc8
 67 97 70 135 72 157 c 6
 98.9053 375 l 6
 101.225 393.792 103.066 413.413 103.066 429 c 7
 103.066 452.427 98.5234 465 77.5 465 c 7
 57.6406 465 35.9004 460.107 23 451 c 5
 11 481 l 5
 39 513 73.6182 541 138 541 c 7
 179.792 541 199 509.009 199 455 c 7
 199 423.936 195.588 395.524 182 293 c 6xd0
EndSplineSet
Fore
SplineSet
331 60 m 19xb8
 331 91 336 144 344 171 c 1
 337 171 l 1
 316 98 250 -13 157 -13 c 3
 102 -13 65 20 65 92 c 3
 65 109 66 135 69 160 c 2
 84 270 l 1
 106 452 l 9
 24 467 l 17
 30 512 l 1
 197 526 l 25
 208 512 l 25
 172 227 l 18
 169 201 166 166 166 153 c 3
 166 112 176 93 196 93 c 3x78
 258 93 334 170 362 394 c 10
 378 520 l 1
 468 532 l 1
 475 524 l 1
 425 144 l 2
 422 123 421 103 421 86 c 3
 421 65 424 53 445 53 c 3
 469 53 489 64 502 70 c 1
 513 42 l 1
 497 24 461 -20 400 -20 c 3
 346 -20 331 19 331 60 c 19xb8
EndSplineSet
Validated: 1
EndChar

StartChar: v
Encoding: 118 118 46
Width: 498
VWidth: 0
Flags: W
HStem: -12 67<140.271 272.459> 467 45<20 53.7072> 518 20G<344.5 391>
VStem: 61 99<87.8752 377.844> 374 71<238.977 426.305>
LayerCount: 3
Back
SplineSet
317.991 60.5 m 23xbc
 317.991 91.3008 323.46 144 331 171 c 5
 324 171 l 5
 303 98 237.425 -13 144 -13 c 7
 89 -13 52 20 52 92 c 7
 52 109 52.5566 134.682 56 160 c 6
 70.9619 270 l 5
 93 451.5 l 13
 11 467 l 21
 17 512 l 5
 184 526.5 l 29
 195 512.5 l 29
 159 227 l 22
 155.665 200.556 153 166 153 153 c 7
 153 111.988 163 93 183 93 c 7x7c
 244.695 93 320.599 170.342 349 394 c 14
 365 520 l 5
 455.5 531.5 l 5
 462 524 l 5
 411.991 144 l 6
 409.271 123.338 407.824 102.868 407.824 86 c 7
 407.824 65.0107 411.468 53 432.491 53 c 7
 456.179 53 476.166 63.667 488.5 70 c 5
 500 42 l 5
 483.999 24 448.019 -20 387.5 -20 c 7
 332.98 -20 317.991 19.0205 317.991 60.5 c 23xbc
EndSplineSet
Fore
SplineSet
359 538 m 27
 423 538 445 463 445 399 c 27
 445 210 347 -12 190 -12 c 3
 91 -12 61 61 61 162 c 3
 61 240 71 310 96 452 c 9
 15 467 l 25
 20 512 l 25
 187 526 l 25
 198 512 l 17
 172 324 160 240 160 190 c 3
 160 108 185 55 236 55 c 3
 320 55 374 208 374 328 c 3
 374 418 325 479 292 508 c 1
 306 525 330 538 359 538 c 27
EndSplineSet
Validated: 1
EndChar

StartChar: x
Encoding: 120 120 47
Width: 496
VWidth: 0
Flags: W
HStem: -20 108<22.0218 100.425> -16 75.4434<332 425.763> 421 109<396.764 473.612> 465 45<63 93.736>
LayerCount: 3
Back
SplineSet
273 232 m 2xd0
 284 315 l 1
 288 346 288 371 288 384 c 3xc8
 288 425 276 432 256 432 c 3xd0
 199 432 124.717 358.485 94 137 c 10
 75 0 l 1
 -16 -12 l 1
 -22 -4 l 1
 16 264 l 1
 37.5 448.5 l 1
 -44 464.5 l 1
 -38 509 l 1xb0
 129 523 l 1
 140 510 l 9
 104 342 l 17
 111 340 l 1
 145 444 222 538 298 538 c 3
 353 538 388 505.531 388 445 c 3xc8
 388 428 385 390 383 368 c 2
 356.095 150 l 2
 353.775 131.208 351.934 111.587 351.934 96 c 3
 351.934 72.5732 356.477 60 377.5 60 c 3
 397.359 60 419.1 64.8926 432 74 c 1
 444 44 l 1
 416 12 381.382 -16 317 -16 c 3
 275.208 -16 256 15.9912 256 70 c 3
 256 101.064 259.412 129.476 273 232 c 2xd0
EndSplineSet
Fore
SplineSet
300.354 293.07 m 5x20
 369 91 l 6
 377.409 67.3486 388.858 59.4434 404.215 59.4434 c 4
 418.078 59.4434 435.126 65.8838 456 73 c 5
 467 42 l 5
 434 10 406 -16 353 -16 c 4x60
 311 -16 285.168 23.0576 267 76 c 6
 225.781 196.115 l 5
 176.734 72.0381 107.308 -20 49 -20 c 4
 13 -20 0 4 0 32 c 4
 0 58 18 87 35 105 c 5
 51 91 55 88 73 88 c 4
 129.391 88 169.758 169.721 205.575 254.996 c 5
 139 449 l 5
 57 465 l 5
 63 510 l 5x90
 215 523 l 5
 227 509 l 5
 282.087 346.841 l 5
 329.287 444.546 393.871 530 446 530 c 4
 483 530 496 506 496 478 c 4
 496 452 477 423 461 405 c 5
 445 419 435 421 416 421 c 4
 368.115 421 331.817 365.788 300.354 293.07 c 5x20
EndSplineSet
Validated: 524289
EndChar

StartChar: y
Encoding: 121 121 48
Width: 452
VWidth: 0
Flags: HW
HStem: -227 93<13.9893 132.663> 468 45<26 56.736> 523 20G<372 404.5>
VStem: 366 86<302.769 488.465>
LayerCount: 3
Back
SplineSet
234.904 303.604 m 2xd0
 248.339 220.962 l 1
 253.46 190.128 260.679 166.192 264.432 153.746 c 0xc8
 276.271 114.492 289.78 111.256 308.929 117.03 c 0xd0
 363.501 133.488 412.982 225.704 378.85 446.241 c 10
 357.482 582.893 l 1
 441.142 620.657 l 1
 449.196 614.73 l 1
 490.197 347.173 l 1
 522.552 163.7 l 1
 605.679 172.059 l 1
 612.64 128.2 l 1xb0
 456.795 66.5762 l 1
 442.51 75.8467 l 9
 428.468 247.086 l 17
 421.188 246.979 l 1
 418.666 137.592 372.087 25.3623 299.324 3.41797 c 0
 246.667 -12.4629 203.918 8.06836 186.305 66.4697 c 0xc8
 181.396 82.7461 173.296 119.994 168.858 141.634 c 2
 131.763 358.145 l 2
 128.191 376.913 124.62 395.682 120 411 c 0
 113.359 433.021 105.776 444.312 84.7129 437.959 c 0
 66.5225 432.474 46.9033 421.334 37.0557 408.964 c 1
 16.9043 434.221 l 1
 34.4717 472.942 59.8965 509.856 121.171 528.336 c 0
 161.382 540.463 188.812 515.312 204.404 463.611 c 0
 213.355 433.933 218.567 406.259 234.904 303.604 c 2xd0
EndSplineSet
Fore
SplineSet
256 -58 m 17
 126 379 l 2
 120.21 398.465 109.038 439 96 439 c 3
 69.8232 439 54 427 37 407 c 9
 17 434 l 17
 37 485 93.9583 531 142 531 c 3
 173.715 531 192.524 499.521 200 474 c 2
 316 78 l 9
 256 -58 l 17
452 423 m 3
 452 302 288 -227 55 -227 c 3
 3 -227 -20 -192 -20 -158 c 3
 -20 -136 -5 -115 18 -104 c 1
 33 -113 57 -134 86 -134 c 3
 202 -134 264 36 286 78 c 0
 339 179 366 287 366 359 c 3
 366 434 343 505 324 526 c 1
 345 538 364 543 380 543 c 3
 429 543 452 491 452 423 c 3
EndSplineSet
Validated: 524293
EndChar

StartChar: z
Encoding: 122 122 49
Width: 448
VWidth: 0
Flags: HW
HStem: -20 75.5<226.578 341.651> -6 21G<57 71> 434 81<146 298>
VStem: 24 47<14.9157 42.5196>
LayerCount: 3
Back
SplineSet
26.8408 -8 m 0
 7.04102 -8 -2.27734 7.40039 -3.5498 19.5 c 0
 -5.51465 38.2002 6.18262 52.5 17.8799 66.7998 c 2
 266.179 362.7 l 1
 318.001 403.4 l 1
 314.238 407.8 l 1
 300.517 402.3 288.648 400.1 275.448 400.1 c 0
 190.748 400.1 168.876 482.6 110.576 482.6 c 0
 92.9766 482.6 81.5703 476 77.9795 468.3 c 1
 80.5273 465 l 1
 112.427 465 133.555 441.9 136.444 414.4 c 0
 139.451 385.8 121.732 366 94.2324 366 c 0
 65.6318 366 38.8887 390.2 35.5361 422.1 c 0
 29.4082 480.4 83.374 532.1 144.975 532.1 c 0
 220.874 532.1 258.208 480.4 326.408 480.4 c 0
 349.508 480.4 367.977 482.6 380.599 488.1 c 1
 375.971 511.2 379.68 538.7 404.979 538.7 c 0
 421.479 538.7 429.468 525.5 430.739 513.4 c 0
 432.474 496.9 421.992 481.5 409.311 466.1 c 2
 157.942 168 l 1
 110.927 133.9 l 1
 113.589 129.5 l 1
 113.589 129.5 123.258 131.7 137.559 131.7 c 0
 225.559 131.7 264.16 47 327.961 47 c 0
 349.961 47 362.119 56.9004 370.807 78.9004 c 1
 368.261 82.2002 l 1
 330.107 78.9004 303.826 98.7002 300.242 132.8 c 0
 297.005 163.6 315.708 184.5 344.309 184.5 c 0
 375.108 184.5 404.168 159.2 407.752 125.1 c 0
 415.729 49.2002 371.141 -8 286.44 -8 c 0
 199.541 -8 151.788 59.0996 82.4883 59.0996 c 0
 61.5879 59.0996 57.4199 56.9004 46.8828 52.5 c 1
 61.4102 29.4004 62.041 -8 26.8408 -8 c 0
EndSplineSet
Fore
SplineSet
-10 27 m 25
 298 423 l 17
 125 442 l 1
 118 348 l 1
 74 348 l 1
 41 518 l 1
 52 529 l 1x70
 356 496 l 1
 380 533 l 9
 430 498 l 25
 144 138 l 17
 212 126 271.95 52 312 52 c 3
 332.396 52 360 66.2598 360 90 c 3
 360 114.331 338 130 306 134 c 1
 310 164 329.66 190 360 190 c 27
 397.212 190 412 160.04 412 110 c 3
 412 37.9722 348.729 -10 288 -10 c 3xb0
 189.674 -10 186 48 88 60 c 1
 36 -8 l 9
 -10 27 l 25
EndSplineSet
Validated: 524289
Layer: 2
SplineSet
-10 27 m 29
 298 423 l 21
 125 442 l 5
 118 348 l 5
 74 348 l 5
 41 518 l 5
 52 529 l 5x70
 356 496 l 5
 380 533 l 13
 430 498 l 29
 130 113 l 21
 145 105 290.945 48.5312 314 48 c 4
 327.835 48 332.259 73.2598 332.259 97 c 7
 332.259 111.048 330.859 124.565 329 132 c 13
 359 143 l 21
 386 116 398.119 74.0332 398.119 49 c 7
 398.119 -9.40137 363.926 -49 333 -49 c 7xb0
 274.991 -49 110 37 85 51 c 5
 36 -8 l 13
 -10 27 l 29
EndSplineSet
EndChar

StartChar: comma
Encoding: 44 44 50
Width: 230
VWidth: 0
Flags: W
HStem: -147 40<30.5952 40.4938>
VStem: 99 121<-26.5142 103.545>
LayerCount: 3
Fore
SplineSet
15 -107 m 17
 77 -69 99 -15 99 24 c 3
 99 60 83 90 72 99 c 1
 100 125 125 134 149 134 c 3
 191 134 220 99 220 50 c 3
 220 -7 174 -105 34 -147 c 9
 15 -107 l 17
EndSplineSet
Validated: 1
EndChar

StartChar: period
Encoding: 46 46 51
Width: 245
VWidth: 0
Flags: W
HStem: -19 143<71.375 173.5>
VStem: 50 145<2.625 104.125>
LayerCount: 3
Fore
SplineSet
122 124 m 31
 162 124 195 94 195 55 c 31
 195 14 162 -19 122 -19 c 31
 82 -19 50 15 50 56 c 31
 50 95 83 124 122 124 c 31
EndSplineSet
Validated: 1
EndChar

StartChar: colon
Encoding: 58 58 52
Width: 245
VWidth: 0
Flags: W
HStem: 1 135<75.9785 174.022> 381 135<75.9785 174.022>
VStem: 57 136<20.2058 118.565 400.206 498.928>
LayerCount: 3
Fore
SplineSet
125 516 m 27
 162 516 193 488 193 451 c 27
 193 412 162 381 125 381 c 27
 87 381 57 413 57 452 c 27
 57 489 88 516 125 516 c 27
125 136 m 27
 162 136 193 107 193 71 c 27
 193 32 162 1 125 1 c 27
 87 1 57 33 57 72 c 27
 57 108 88 136 125 136 c 27
EndSplineSet
Validated: 1
EndChar

StartChar: k
Encoding: 107 107 53
Width: 462
VWidth: 0
Flags: HW
HStem: -12 21G<32 129 356 404> 487 48<387 437> 706 44<46 76.736> 744 20G<46 224>
LayerCount: 3
Back
SplineSet
300.354 293.07 m 5x20
 369 91 l 2
 377.409 67.3486 388.858 59.4434 404.215 59.4434 c 0
 418.078 59.4434 435.126 65.8838 456 73 c 1
 467 42 l 1
 434 10 406 -16 353 -16 c 0x60
 311 -16 285.168 23.0576 267 76 c 2
 225.781 196.115 l 1
 176.734 72.0381 107.308 -20 49 -20 c 0
 13 -20 0 4 0 32 c 0
 0 58 18 87 35 105 c 1
 51 91 55 88 73 88 c 0
 129.391 88 169.758 169.721 205.575 254.996 c 1
 139 449 l 1
 57 465 l 1
 63 510 l 1x90
 215 523 l 1
 227 509 l 1
 282.087 346.841 l 5
 329.287 444.546 393.871 530 446 530 c 4
 483 530 496 506 496 478 c 4
 496 452 477 423 461 405 c 5
 445 419 435 421 416 421 c 4
 368.115 421 331.817 365.788 300.354 293.07 c 5x20
EndSplineSet
Fore
SplineSet
177 278 m 17
 234 370 353.517 526.93 405.646 526.93 c 3
 442.646 526.93 457 508 457 480 c 3
 457 454 441 429 422 413 c 1
 406 422 389.448 427 366 427 c 3
 328.946 427 271 335 256 308 c 9
 291 230 l 18
 341.129 118.284 377.977 59 399 59 c 3
 415.009 59 450 72 450 72 c 1
 463 42 l 1
 463 42 416 -17 360 -17 c 3
 296 -17 278 39 215 172 c 10
 175 259 l 25
 177 278 l 17
70 264 m 9xd0
 122 690 l 17
 40 706 l 1
 46 750 l 1xe0
 214 764 l 1
 224 751 l 1
 129 0 l 17
 38 -12 l 1
 32 -4 l 1
 70 264 l 9xd0
EndSplineSet
Validated: 524289
EndChar

StartChar: w
Encoding: 119 119 54
Width: 763
VWidth: 0
Flags: W
HStem: -12 67<141.271 273.918 424.5 539.302> 467 45<21 54.1851> 518 20G<609.5 656>
VStem: 62 99<87.8752 375.104> 330 99<113.872 399.763> 639 71<238.977 426.305>
LayerCount: 3
Back
SplineSet
623 538 m 27
 594.37 538 570 525 556 508 c 1
 589 479 638 418.006 638 328 c 3
 638 208.122 584.149 55 500 55 c 3
 448.946 55 424 107.976 424 190 c 3
 424 240 436 323.5 462 511.5 c 9
 451.5 526.5 l 25
 284 512 l 25
 278.5 467 l 25
 360 451.5 l 17
 335.5 310.5 325 240.16 325 162 c 3
 325 60.7578 354.547 -12 453.762 -12 c 3
 610.925 -12 709 210.316 709 399 c 27
 709 462.747 686.747 538 623 538 c 27
EndSplineSet
Fore
SplineSet
369 519 m 1
 455 526 l 1
 465 512 l 1
 445 351 l 2
 443 333 440 318 438 297 c 24
 434 256 429 215 429 190 c 3
 429 108 452 55 503 55 c 3
 587 55 639 208 639 328 c 3
 639 418 590 479 557 508 c 1
 571 525 595 538 624 538 c 3
 688 538 710 463 710 399 c 3
 710 210 614 -12 457 -12 c 3
 392 -12 359 19 342 69 c 1
 302 20 250 -12 191 -12 c 3
 92 -12 62 61 62 162 c 3
 62 240 73 310 97 452 c 1
 15 467 l 1
 21 512 l 1
 189 526 l 1
 199 512 l 1
 173 324 161 240 161 190 c 3
 161 108 186 55 237 55 c 3
 275 55 308 86 331 131 c 1
 330 141 330 151 330 162 c 3
 330 233 349 401 369 519 c 1
EndSplineSet
Validated: 1
EndChar

StartChar: hyphen
Encoding: 45 45 56
Width: 345
VWidth: 0
Flags: W
HStem: 241 61<55 208.954> 252 61<141.046 295>
VStem: 48 254
LayerCount: 3
Fore
SplineSet
55 302 m 21xa0
 302 313 l 5
 295 252 l 5x60
 48 241 l 13
 55 302 l 21xa0
EndSplineSet
Validated: 1
EndChar

StartChar: one
Encoding: 49 49 57
Width: 364
VWidth: 0
Flags: W
HStem: 0 45<35 60.856 314.147 341> 474 47<47 73.9579>
VStem: 136 101<73 473>
LayerCount: 3
Back
SplineSet
412 651 m 5xb8
 398 672 354 706 307 706 c 7
 255 706 237 660 237 587 c 6
 237 538 l 5
 377 538 l 5
 370 484 l 5
 237 484 l 5xd8
 237 74 l 13
 333 53 l 29
 326 4 l 21
 37 4 l 13
 44 52 l 29
 136 74 l 21
 136 484 l 5
 46 484 l 5
 51 525 l 5
 137 547 l 5
 148 676 255 783 347 783 c 7
 405 783 453 757 453 717 c 7
 453 698 444 671 412 651 c 5xb8
EndSplineSet
Fore
SplineSet
237 567 m 5
 237 69 l 21
 347 49 l 13
 341 0 l 5
 30 0 l 5
 35 45 l 5
 136 73 l 5
 136 473 l 5
 42 474 l 5
 47 521 l 5
 220 567 l 5
 237 567 l 5
EndSplineSet
Validated: 1
EndChar

StartChar: semicolon
Encoding: 59 59 58
Width: 245
VWidth: 0
Flags: W
HStem: -131 38<21.6046 31.1225> 381 135<72.9785 171.908>
VStem: 54 137<400.206 498.451> 86 114<-19.8011 106.5>
LayerCount: 3
Fore
SplineSet
7 -93 m 17xd0
 65 -57 86 -6 86 30 c 3
 86 64 71 93 61 100 c 1
 87 125 111 134 133 134 c 3
 173 134 200 101 200 55 c 3
 200 1 157 -91 25 -131 c 9
 7 -93 l 17xd0
122 516 m 27
 160 516 191 488 191 451 c 27
 191 412 160 381 122 381 c 27
 84 381 54 413 54 452 c 27xe0
 54 489 85 516 122 516 c 27
EndSplineSet
Validated: 1
EndChar

StartChar: exclam
Encoding: 33 33 59
Width: 299
VWidth: 0
Flags: HW
HStem: -22 149<95.0309 200.375>
VStem: 72 151<0.875 105.153> 88 119<476.333 773.996> 120 54<215 430.595>
LayerCount: 3
Back
SplineSet
257 0 m 1
 -14 0 l 1
 -4 45 l 1
 83 73 l 1
 158 682 l 1
 69 707 l 1
 80 753 l 1
 354 753 l 1
 343 707 l 1
 255 684 l 1
 180 69 l 17
 268 49 l 9
 257 0 l 1
EndSplineSet
Fore
SplineSet
160.85 128.8 m 27
 194.45 128.8 218.6 97.5996 218.6 65.3604 c 24
 218.6 20.6396 186.05 -19.9199 140.9 -19.9199 c 19
 107.3 -19.9199 84.2002 8.16016 84.2002 41.4404 c 0
 84.2002 82 115.7 128.8 160.85 128.8 c 27
134.146 199.858 m 9
 179.388 205.869 l 17
 264 682 l 2
 273.953 738.008 254.688 764 222 764 c 3
 172.376 764 150.891 745.778 148 682 c 2
 134.146 199.858 l 9
EndSplineSet
Validated: 8912937
EndChar

StartChar: quotesingle
Encoding: 39 39 60
Width: 231
VWidth: 0
Flags: W
HStem: 540 250<92 148.298>
VStem: 92 57<541.521 595.776>
LayerCount: 3
Fore
SplineSet
60 789 m 5
 68 790 75 790 83 790 c 7
 112 790 142 786 171 779 c 5
 149 547 l 5
 134 542 121 540 104 540 c 7
 100 540 97 540 92 540 c 5
 60 789 l 5
EndSplineSet
Validated: 1
EndChar

StartChar: two
Encoding: 50 50 61
Width: 495
VWidth: 0
Flags: W
HStem: 0 86<168 422> 521 64<188.868 279.697>
VStem: 79 85<410.043 494.178> 315 109<323.501 484.149>
LayerCount: 3
Back
SplineSet
258 518.857 m 7xf8
 220.394 518.857 181.932 484.387 181 380 c 5
 130 382 100 399.918 100 439 c 31
 100 533.692 226.933 585 294 585 c 7
 386 585 448 518 448 442 c 7xf8
 448 362 404 288 336 250 c 5
 336 241 l 5
 433 214 481 138 481 60 c 7
 481 -43 400 -148 274 -148 c 7
 211 -148 157 -137 105 -93 c 13
 132 -46 l 21
 192 -83 227 -85 264 -85 c 7
 338 -85 375 -28 375 42 c 7xf4
 375 118 324 187 244 187 c 7
 224 187 202 186 178 177 c 5
 174 191 168 211 168 236 c 5
 297.608 271.642 348.553 351.28 348.553 417 c 7
 348.553 472.977 312.745 518.857 258 518.857 c 7xf8
EndSplineSet
Fore
SplineSet
164 375 m 5
 104 381 79 396 79 446 c 7
 79 516 191 585 266 585 c 7
 355 585 424 521 424 426 c 7
 424 314 367 262 247 158 c 6
 168 86 l 13
 435 86 l 21
 422 0 l 13
 64 0 l 29
 60 62 l 21
 234 236 l 22
 285 284 315 340 315 399 c 7
 315 465 286 521 228 521 c 7
 172 521 164 434 164 375 c 5
EndSplineSet
Validated: 1
EndChar

StartChar: three
Encoding: 51 51 62
Width: 489
VWidth: 0
Flags: W
HStem: -148 63<155.255 278.635> 186 58<114.856 181.804> 520 65<162.287 263.061>
VStem: 40 80<-45.6181 -5.28494> 48 81<410.966 484.049> 297 99<349.156 484.066> 323 106<-30.4606 120.635>
LayerCount: 3
Back
SplineSet
95 442 m 5
 109.667 475.333 129.333 503 154 525 c 132
 178.667 547 202.5 562.167 225.5 570.5 c 132
 248.5 578.833 271.333 583 294 583 c 4
 338.667 583 375.5 569.167 404.5 541.5 c 132
 433.5 513.833 448 480.667 448 442 c 4
 448 402 437.833 364.833 417.5 330.5 c 132
 397.167 296.167 370 269.333 336 250 c 5
 336 241 l 5
 382.667 228.333 418.5 205.333 443.5 172 c 132
 468.5 138.667 481 101.333 481 60 c 4
 481 6 461.667 -42.1667 423 -84.5 c 132
 384.333 -126.833 334.667 -148 274 -148 c 4
 204.667 -148 148.333 -129.667 105 -93 c 5
 132 -46 l 5
 174 -72 218 -85 264 -85 c 4
 299.333 -85 326.667 -73 346 -49 c 132
 365.333 -25 375 5.33333 375 42 c 4
 375 81.3333 362.833 115.333 338.5 144 c 132
 314.167 172.667 282.667 187 244 187 c 4
 218 187 196 183.667 178 177 c 5
 168 236 l 5
 210.667 246 251.5 264.833 290.5 292.5 c 132
 329.5 320.167 349 353 349 391 c 6
 349 393 l 6
 349 426.333 341.333 453 326 473 c 132
 310.667 493 289.667 503 263 503 c 4
 245 503 227.5 497.833 210.5 487.5 c 132
 193.5 477.167 180.5 467 171.5 457 c 132
 162.5 447 151.667 433 139 415 c 5
 95 442 l 5
EndSplineSet
Fore
SplineSet
297 417 m 7xe4
 297 470 262 520 207 520 c 7
 169 520 130 484 129 380 c 5
 78 382 48 400 48 439 c 31
 48 534 175 585 242 585 c 7
 334 585 396 518 396 442 c 7xec
 396 362 348 287 280 249 c 5
 280 240 l 5
 377 213 429 138 429 60 c 7
 429 -43 348 -148 222 -148 c 7
 78 -148 40 -81 40 -32 c 7
 40 15 96 32 120 36 c 5
 131 -26 139 -85 212 -85 c 7
 286 -85 323 -28 323 42 c 7xf2
 323 115 269 189 192 189 c 7
 172 189 143 188 121 186 c 5
 116 203 111 219 111 239 c 4
 111 241 111 242 111 244 c 5
 129 250 297 276 297 417 c 7xe4
EndSplineSet
Validated: 1
EndChar

StartChar: seven
Encoding: 55 55 63
Width: 552
VWidth: 0
Flags: W
HStem: 466 92<105 386>
LayerCount: 3
Fore
SplineSet
172 -113 m 17
 386 466 l 9
 94 466 l 17
 105 558 l 25
 480 558 l 25
 483 497 l 17
 231 -142 l 17
 172 -113 l 17
EndSplineSet
Validated: 1
EndChar

StartChar: four
Encoding: 52 52 64
Width: 613
VWidth: 0
Flags: W
HStem: -138 45<271 295.064 538.939 564> 104 80<160 365 466 567>
VStem: 365 101<-65 104 184 472>
LayerCount: 3
Back
SplineSet
461 425 m 5
 461 -78 l 21
 571 -98 l 13
 565 -147 l 5
 255 -147 l 5
 260 -102 l 5
 361 -74 l 5
 361 336 l 5
 268 313 l 5
 258 363 l 5
 461 425 l 5
EndSplineSet
Fore
SplineSet
359 561 m 5
 466 579 l 5
 465 184 l 5
 577 184 l 5
 567 104 l 5
 466 104 l 5
 466 -69 l 5
 570 -89 l 5
 564 -138 l 5
 266 -138 l 5
 271 -93 l 5
 365 -65 l 5
 365 106 l 5
 87 106 l 5
 78 168 l 5
 359 561 l 5
366 182 m 5
 365 472 l 5
 160 180 l 5
 366 182 l 5
EndSplineSet
Validated: 1
EndChar

StartChar: five
Encoding: 53 53 65
Width: 490
VWidth: 0
Flags: W
HStem: -147 68<108.793 254.35> 470 91<184 395.667>
VStem: 313 106<-10.4441 130.19>
LayerCount: 3
Fore
SplineSet
200 -147 m 3
 135 -147 84 -126 15 -64 c 9
 44 -14 l 17
 106 -58 133 -79 189 -79 c 3
 257 -79 313 -15 313 54 c 3
 313 129 257 211 86 225 c 9
 141 561 l 17
 374 561 l 2
 391 561 404 563 412 566 c 1
 414 558 414 545 414 538 c 3
 414 499 389 470 321 470 c 0
 319 470 318 470 317 470 c 10
 184 471 l 25
 158 306 l 17
 350 279 419 182 419 84 c 3
 419 -31 316 -147 200 -147 c 3
EndSplineSet
Validated: 1
EndChar

StartChar: eight
Encoding: 56 56 66
Width: 522
VWidth: 0
Flags: W
HStem: -16 54<204.45 322.837> 634 48<185.576 295.353>
VStem: 59 94<91.8002 234.6> 77 84<479.29 585.344> 336 86<443.906 590.03> 362 86<84.858 199.328>
LayerCount: 3
Fore
SplineSet
208 308 m 5xe4
 162 269 153 208 153 162 c 4
 153 102 204 38 258 38 c 4
 306 38 362 68 362 143 c 4
 362 206 283 253 208 308 c 5xe4
177 332 m 5
 123 376 77 427 77 496 c 4
 77 597 152 682 260 682 c 5
 355 680 422 605 422 532 c 4xd8
 422 429 350 382 311 359 c 5
 380 309 448 260 448 183 c 4
 448 34 332 -16 231 -16 c 4
 140 -16 59 54 59 152 c 4
 59 248 137 304 177 332 c 5
283 380 m 5
 319 415 336 439 336 513 c 4
 336 582 293 634 244 634 c 4
 206 634 161 609 161 556 c 4
 161 478 219 427 283 380 c 5
EndSplineSet
Validated: 1
EndChar

StartChar: six
Encoding: 54 54 67
Width: 615
VWidth: 0
Flags: W
HStem: -13 63<281.795 397.668> 330 68<265.024 391.151> 596 48<359.878 423>
VStem: 106 98<151.792 389.727> 436 99<108.949 284.837>
LayerCount: 3
Fore
SplineSet
313 330 m 3
 298 330 273 327 261 320 c 1
 256 335 251 351 249 369 c 1
 293 389 334 398 367 398 c 0
 473 398 535 307 535 210 c 0
 535 102 460 -13 339 -13 c 3
 179 -13 106 113 106 255 c 0
 106 433 221 636 423 644 c 1
 436 596 l 1
 276 584 204 425 204 282 c 3
 204 160 254 50 343 50 c 3
 410 50 436 118 436 185 c 3
 436 272 408 330 313 330 c 3
EndSplineSet
Validated: 1
EndChar

StartChar: nine
Encoding: 57 57 68
Width: 615
VWidth: 0
Flags: W
HStem: -104 52<203.908 268.136> 166 65<242.636 352.276> 514 63<235.601 354.483>
VStem: 106 84<289.073 449.691> 425 99<170.836 422.605>
LayerCount: 3
Back
SplineSet
312 234 m 7
 327 234 340 237 352 244 c 5
 372 195 l 21
 329 175 291 166 258 166 c 4
 152 166 101 257 101 354 c 4
 101 462 168 577 289 577 c 7
 449 577 519 451 519 309 c 4
 519 131 403 -72 202 -80 c 5
 188 -32 l 5
 349 -20 420 139 420 282 c 7
 420 404 374 514 285 514 c 7
 217 514 182 449 182 382 c 7
 182 309 226 234 312 234 c 7
EndSplineSet
Fore
SplineSet
310 231 m 3
 331 231 355 238 366 245 c 1
 373 232 378 220 383 207 c 1
 348 180 296 166 263 166 c 0
 157 166 106 257 106 354 c 0
 106 462 189 577 310 577 c 3
 470 577 524 451 524 309 c 0
 524 131 408 -96 207 -104 c 1
 199 -88 196 -70 193 -52 c 1
 354 -40 425 139 425 282 c 3
 425 404 385 514 296 514 c 3
 228 514 190 449 190 382 c 3
 190 309 224 231 310 231 c 3
EndSplineSet
Validated: 1
EndChar

StartChar: zero
Encoding: 48 48 69
Width: 598
VWidth: 0
Flags: W
HStem: -16 59<249.553 378.23> 518 56<225.332 348.77>
VStem: 60 106<158.716 403.703> 431 107<149.744 405.151>
LayerCount: 3
Fore
SplineSet
166 302 m 5
 168 137 227 43 311 43 c 7
 405 43 431 127 431 257 c 7
 431 414 373 518 288 518 c 7
 200 518 166 432 166 302 c 5
538 282 m 7
 538 95 427 -16 297 -16 c 7
 129 -16 60 126 60 273 c 7
 60 452 168 574 308 574 c 7
 457 574 538 470 538 282 c 7
EndSplineSet
Validated: 1
EndChar

StartChar: question
Encoding: 63 63 70
Width: 345
VWidth: 0
Flags: W
HStem: -22 149<182.031 287.375> 719 66<174.859 277.214>
VStem: 56 89<618.534 687.915> 129 100<281.411 384.971> 159 151<0.875 105.153> 314 103<554.91 681.77>
LayerCount: 3
Fore
SplineSet
280 248 m 6xd4
 283 246 l 5
 280 244 l 6
 260 226 241 218 222 218 c 7
 169 218 129 274 129 323 c 7xd4
 129 430 314 495 314 619 c 7
 314 675 268 719 227 719 c 7
 181 719 149 688 145 606 c 6
 145 603 l 5
 142 603 l 6
 109 603 56 607 56 669 c 7xe4
 56 729 173 785 268 785 c 7
 362 785 417 714 417 633 c 7
 417 489 229 432 229 342 c 7
 229 318 246 278 280 248 c 6xd4
310 55 m 7xcc
 310 12 276 -22 234 -22 c 7
 192 -22 159 13 159 56 c 7
 159 97 194 127 234 127 c 7
 275 127 310 96 310 55 c 7xcc
EndSplineSet
Validated: 1
EndChar

StartChar: quotedbl
Encoding: 34 34 103
Width: 337
VWidth: 0
Flags: W
HStem: 540 250<82 138.298 208 264.298>
VStem: 82 57<541.521 595.776> 208 57<541.521 595.776>
LayerCount: 3
Fore
SplineSet
176 789 m 1
 184 790 191 790 199 790 c 3
 228 790 258 786 287 779 c 1
 265 547 l 1
 250 542 237 540 220 540 c 3
 216 540 213 540 208 540 c 1
 176 789 l 1
50 789 m 1
 58 790 65 790 73 790 c 3
 102 790 132 786 161 779 c 1
 139 547 l 1
 124 542 111 540 94 540 c 3
 90 540 86 540 82 540 c 1
 50 789 l 1
EndSplineSet
Validated: 1
EndChar

StartChar: numbersign
Encoding: 35 35 104
Width: 569
VWidth: 0
Flags: W
HStem: 276 61<53 140 213 326 399 482> 465 61<86 170 242 356 428 516>
LayerCount: 3
Fore
SplineSet
203 276 m 1
 188 164 l 1
 124 159 l 1
 140 276 l 1
 38 276 l 1
 53 337 l 1
 151 337 l 1
 170 465 l 1
 72 465 l 1
 86 526 l 1
 180 526 l 1
 198 632 l 1
 260 638 l 1
 242 526 l 1
 366 526 l 1
 383 632 l 1
 445 637 l 1
 428 526 l 1
 530 526 l 1
 516 465 l 1
 418 465 l 1
 399 337 l 1
 496 337 l 1
 482 276 l 1
 388 276 l 1
 374 164 l 1
 310 159 l 1
 326 276 l 1
 203 276 l 1
213 337 m 1
 336 337 l 1
 356 465 l 1
 232 465 l 1
 213 337 l 1
EndSplineSet
Validated: 1
EndChar

StartChar: dollar
Encoding: 36 36 105
Width: 541
VWidth: 0
Flags: W
HStem: -15 60<171.586 241 302 338.312> 536 21G<407 455.176> 716 51<196.491 249>
VStem: 39 50<201.409 228> 53 112<529.893 660.107> 242 60<-67 -15 52 299> 250 60<473 709 765.719 813> 401 114<121.731 231.906> 407 47<546 573.716>
LayerCount: 3
Fore
SplineSet
454 536 m 1xec80
 407 546 l 1xec80
 377 662 l 2
 374 672 346 697 310 709 c 1
 310 442 l 1
 406 385 515 328 515 214 c 0
 515 93 417 12 301 -9 c 1
 301 -67 l 1
 241 -67 l 1
 241 -15 l 2
 240 -15 239 -15 238 -15 c 0
 150 -15 79 18 31 74 c 1
 39 236 l 1
 89 228 l 1xf3
 120 113 l 1
 147 74 195 47 242 45 c 1
 242 319 l 1
 150 372 53 442 53 563 c 0
 53 690 144 755 249 767 c 1
 249 813 l 1
 309 813 l 1
 309 768 l 1
 358 764 417 748 464 706 c 1
 464 701 454 536 454 536 c 1xec80
250 473 m 1xea
 250 716 l 1
 199 710 165 678 165 607 c 0
 165 551 195 501 250 473 c 1xea
302 299 m 1xe5
 302 52 l 1
 353 65 401 101 401 176 c 0
 401 222 358 265 302 299 c 1xe5
EndSplineSet
Validated: 1
EndChar

StartChar: percent
Encoding: 37 37 106
Width: 653
VWidth: 0
Flags: W
HStem: -14 55<465.703 571.41> 232 55<458.293 566.677> 284 56<103.242 208.413> 533 56<95.7473 201.735>
VStem: 7 70<367.295 515.994> 228 69<359.238 506.85> 370 70<68.2435 211.884> 592 68<61.0095 206.518>
LayerCount: 3
Back
SplineSet
139.01 543.191 m 7x3f80
 77.4805 543.191 66.3203 493.445 66.3203 446.191 c 7
 66.3203 387.083 89.5771 334.89 145.906 334.89 c 7
 202.074 334.89 218.48 381.374 218.48 435.083 c 7
 218.48 499.363 190.523 543.191 139.01 543.191 c 7x3f80
147.015 588.658 m 7
 241.645 588.658 277.359 514.906 277.359 442.046 c 7
 277.359 352.819 226.051 289 138 289 c 7
 49.4756 289 6.50195 364.191 6.50195 438.879 c 7
 6.50195 507.355 49.9907 588.658 147.015 588.658 c 7
503.104 238.302 m 7
 449.973 238.302 430.414 189.556 430.414 142.302 c 7
 430.414 83.1934 462 31 510 31 c 7x7f80
 566.036 31 582.574 77.4844 582.574 131.193 c 7
 582.574 195.474 552.001 238.302 503.104 238.302 c 7
511.108 284.769 m 7
 605.738 284.769 640.453 211.017 640.453 138.156 c 7
 640.453 48.9297 589.712 -14.8896 502.094 -14.8896 c 7
 413.569 -14.8896 370.596 60.3018 370.596 134.989 c 7
 370.596 203.466 419.505 284.769 511.108 284.769 c 7
484 581 m 5
 552 585 l 13
 154 -13 l 21
 83 -17 l 5xbf80
 484 581 l 5
EndSplineSet
Fore
SplineSet
512 232 m 7xdf
 469 232 440 210 440 144 c 7
 440 88 464 41 519 41 c 7
 575 41 592 83 592 133 c 7
 592 193 563 232 512 232 c 7xdf
525 287 m 7
 622 287 660 213 660 140 c 7
 660 50 606 -14 511 -14 c 7
 415 -14 370 62 370 136 c 7
 370 205 426 287 525 287 c 7
149 533 m 7
 91 533 77 494 77 444 c 7
 77 388 101 340 156 340 c 7xbf
 212 340 228 382 228 433 c 7
 228 493 200 533 149 533 c 7
158 589 m 7
 260 589 297 513 297 439 c 7
 297 349 244 284 148 284 c 7
 51 284 7 360 7 436 c 7
 7 506 52 589 158 589 c 7
496 581 m 5
 577 586 l 5
 162 -13 l 5
 78 -18 l 5
 496 581 l 5
EndSplineSet
Validated: 1
EndChar

StartChar: ampersand
Encoding: 38 38 107
Width: 699
VWidth: 0
Flags: W
HStem: -14 60<284.05 409.823> 705 59<332.453 430.691>
VStem: 114 118<102.338 243.755> 200 111<534.269 656.397> 462 120<517.312 671.872> 531 81<251.377 370.244>
LayerCount: 3
Fore
SplineSet
457 122 m 1xe0
 436 153 l 1
 314 325 l 1
 312 328 l 1
 272 291 232 251 232 186 c 0
 232 102 286 46 348 46 c 0
 385 46 444 80 457 122 c 1xe0
411 764 m 0
 508 764 582 718 582 598 c 0xd8
 582 507 494 428 428 388 c 1
 428 387 l 1
 518 239 l 1
 527 272 531 305 531 339 c 3
 531 354 531 369 529 385 c 1
 546 384 590 376 612 368 c 1
 610 326 594 237 559 183 c 1
 602 118 648 68 717 47 c 2
 737 41 l 1
 728 -1 l 1
 702 -10 678 -13 655 -13 c 0
 588 -13 538 25 492 79 c 1
 444 18 394 -14 298 -14 c 0
 198 -14 114 46 114 154 c 0xe4
 114 261 193 325 282 370 c 1
 237 436 200 502 200 574 c 0xd0
 200 686 306 764 411 764 c 0
391 429 m 1
 438 468 462 509 462 576 c 0
 462 640 444 705 380 705 c 0
 330 705 311 659 311 616 c 0
 311 558 368 466 391 429 c 1
EndSplineSet
Validated: 1
EndChar

StartChar: parenleft
Encoding: 40 40 108
Width: 287
VWidth: 0
Flags: W
HStem: 740 20G<214 249>
VStem: 30 108<85.3841 453.43>
LayerCount: 3
Fore
SplineSet
273 -192 m 5
 231 -227 l 5
 200 -198 30 -42 30 270 c 4
 30 588 194 726 234 760 c 5
 264 720 l 5
 212 652 138 533 138 276 c 7
 138 24 246 -148 273 -192 c 5
EndSplineSet
Validated: 1
EndChar

StartChar: parenright
Encoding: 41 41 109
Width: 287
VWidth: 0
Flags: W
HStem: 740 20G<32 71.5>
VStem: 149 108<79.5699 447.616>
LayerCount: 3
Fore
SplineSet
14 725 m 5
 56 760 l 5
 87 731 257 575 257 263 c 4
 257 -55 93 -193 53 -227 c 5
 23 -187 l 5
 75 -119 149 0 149 257 c 7
 149 509 41 681 14 725 c 5
EndSplineSet
Validated: 1
EndChar

StartChar: asterisk
Encoding: 42 42 110
Width: 372
VWidth: 0
Flags: W
HStem: 485 69<12 100.678> 522 20G<176 216> 557 21G<216.778 242>
VStem: 103 74<644.333 733> 193 75<396 484.082>
LayerCount: 3
Fore
SplineSet
12 485 m 5xb8
 3 554 l 5
 5 554 l 6
 7 554 9 554 11 554 c 4
 44 554 111 560 144 571 c 6
 146 572 l 5
 159 538 l 5
 157 537 l 6
 125 510 60 491 14 485 c 6
 12 485 l 5xb8
358 646 m 5
 367 574 l 5
 364 574 l 6
 362 574 360 574 358 574 c 4
 325 574 258 568 226 557 c 6
 224 557 l 5
 211 593 l 5
 212 594 l 6
 245 620 310 639 355 645 c 6
 358 646 l 5
103 733 m 5
 178 742 l 5
 178 739 l 6
 177 737 177 735 177 733 c 4
 177 701 184 633 194 601 c 6
 195 599 l 5
 156 586 l 5
 155 587 l 6
 129 620 109 685 103 730 c 6
 103 733 l 5
268 396 m 5
 193 387 l 5
 193 389 l 6
 193 391 193 393 193 395 c 4
 193 428 187 495 176 528 c 6
 176 530 l 5
 215 542 l 5x78
 216 541 l 6
 242 509 262 443 268 398 c 6
 268 396 l 5
EndSplineSet
Validated: 1
EndChar

StartChar: plus
Encoding: 43 43 111
Width: 345
VWidth: 0
Flags: W
HStem: 248 61<32 139 205 311>
VStem: 139 66<132 248 309 422>
LayerCount: 3
Fore
SplineSet
205 248 m 1
 206 125 l 1
 139 132 l 1
 139 248 l 1
 25 248 l 1
 32 309 l 1
 139 309 l 1
 139 429 l 1
 204 422 l 1
 205 309 l 1
 318 309 l 1
 311 248 l 1
 205 248 l 1
EndSplineSet
Validated: 1
EndChar

StartChar: slash
Encoding: 47 47 112
Width: 332
VWidth: 0
Flags: W
HStem: 733 20G<266 340.174>
LayerCount: 3
Back
SplineSet
141 -212 m 17
 141 261 l 1
 208 254 l 1
 208 -220 l 9
 141 -212 l 17
141 327 m 17
 141 760 l 1
 208 753 l 1
 205 320 l 9
 141 327 l 17
EndSplineSet
Fore
SplineSet
266 748 m 21
 346 753 l 13
 64 -215 l 21
 -14 -220 l 13
 266 748 l 21
EndSplineSet
Validated: 1
EndChar

StartChar: less
Encoding: 60 60 113
Width: 405
VWidth: 0
Flags: W
LayerCount: 3
Back
SplineSet
290 -36 m 29
 -14 278 l 21
 -20 290 -25 302 -25 317 c 7
 -25 321 -25 326 -24 330 c 13
 296 608 l 29
 326 554 l 29
 44 306 l 29
 319 16 l 29
 290 -36 l 29
EndSplineSet
Fore
SplineSet
14 293 m 13
 350 594 l 29
 382 536 l 29
 111 292 l 29
 385 10 l 29
 345 -50 l 29
 15 276 l 21
 14 293 l 13
EndSplineSet
Validated: 1
EndChar

StartChar: equal
Encoding: 61 61 114
Width: 415
VWidth: 0
Flags: W
HStem: 193 64<41 366> 338 64<43 368>
LayerCount: 3
Fore
SplineSet
41 257 m 21
 373 257 l 5
 366 193 l 5
 34 193 l 13
 41 257 l 21
43 402 m 21
 375 402 l 5
 368 338 l 5
 36 338 l 13
 43 402 l 21
EndSplineSet
Validated: 1
EndChar

StartChar: greater
Encoding: 62 62 115
Width: 405
VWidth: 0
Flags: W
LayerCount: 3
Fore
SplineSet
391 251 m 13
 55 -50 l 29
 23 9 l 29
 296 257 l 29
 20 534 l 29
 60 594 l 29
 390 268 l 21
 391 251 l 13
EndSplineSet
Validated: 1
EndChar

StartChar: at
Encoding: 64 64 116
Width: 530
VWidth: 0
Flags: W
HStem: -67 51<160.734 280.532> 65 47<189.397 266.301 390.123 462.802> 251 30<241.641 307> 425 43<197.539 282.398> 526 49<161.765 366.734>
VStem: -37 64<128.814 377.26> 106 77<118.116 207.408> 124 60<359.078 414.88> 307 72<136.865 251 276.822 402.863> 494 64<154.746 394.36>
LayerCount: 3
Back
SplineSet
307.38 251.02 m 17xfec0
 197.939 233.739 182.82 205.66 182.82 163.9 c 3
 182.82 128.62 200.1 112.061 231.78 112.061 c 3
 267.061 112.061 295.86 145.9 307.38 161.02 c 1
 307.38 251.02 l 17xfec0
419 68.5 m 7
 413.835 68.5 408.832 68.7041 404 69.0928 c 4
 348.962 73.5205 316.02 101.912 316.02 125.739 c 2
 316.02 132.22 l 1
 310.98 132.22 l 1
 292.261 99.0996 238.261 64.54 192.18 64.54 c 3
 146.1 64.54 106.5 90.46 106.5 143.739 c 3xfec0
 106.5 207.82 149.7 252.46 307.38 281.261 c 1
 307.38 310.78 l 2
 307.38 369.82 292.98 424.54 235.38 424.54 c 3
 193.62 424.54 190.739 394.3 184.261 340.3 c 1
 161.22 340.3 124.5 342.46 124.5 385.66 c 3xfdc0
 124.5 433.18 210.18 468.46 270.66 468.46 c 3
 348.42 468.46 378.66 425.98 378.66 333.82 c 2
 378.66 175.42 l 2
 378.66 135.1 397.383 117.1 426.9 117.1 c 3
 490.035 117.1 494 217.032 494 289 c 27
 494 418.071 408.221 526 263 526 c 3
 107.919 526 27 396.562 27 257 c 27
 27 110.238 94 -19 286 -16 c 9
 281 -66 l 17
 110 -79 -37 24.1318 -37 255 c 3
 -37 429.642 88 575 277 575 c 3
 452 575 558 465 558 285 c 3
 558 158.826 514.189 76.1219 430.912 69 c 4
 427.027 68.6678 423.056 68.5 419 68.5 c 7
EndSplineSet
Fore
SplineSet
307 251 m 17xfec0
 198 234 183 206 183 164 c 3
 183 129 200 112 232 112 c 3
 267 112 296 146 307 161 c 1
 307 251 l 17xfec0
316 132 m 1
 311 132 l 1
 303 107 249 65 192 65 c 3
 146 65 106 90 106 144 c 3xfec0
 106 208 150 252 307 281 c 1
 307 311 l 2
 307 370 293 425 235 425 c 3
 194 425 191 394 184 340 c 1
 161 340 124 342 124 386 c 3xfdc0
 124 433 210 468 271 468 c 3
 348 468 379 426 379 334 c 2
 379 175 l 2
 379 135 397 117 427 117 c 3
 490 117 494 217 494 289 c 27
 494 418 408 526 263 526 c 3
 108 526 27 397 27 257 c 19
 27 112 92 -16 279 -16 c 0
 282 -16 284 -16 286 -16 c 9
 281 -66 l 17
 271 -67 262 -67 253 -67 c 0
 94 -67 -37 37 -37 255 c 3
 -37 430 88 575 277 575 c 3
 452 575 558 465 558 285 c 3
 558 173 521 68 418 68 c 3
 355 68 323 96 316 132 c 1
EndSplineSet
Validated: 1
EndChar

StartChar: bracketleft
Encoding: 91 91 117
Width: 301
VWidth: 0
Flags: W
HStem: -227 68<155 210> 698 62<260 326>
VStem: 82 252
LayerCount: 3
Back
SplineSet
27 48 m 29
 119 70 l 29
 119 671 l 29
 24 703 l 29
 31 749 l 21
 205 763 l 5
 220 748 l 5
 220 713 l 5
 220 70 l 13
 317 49 l 29
 310 0 l 21
 20 0 l 13
 27 48 l 29
EndSplineSet
Fore
SplineSet
210 -227 m 5
 92 -227 l 5
 82 -214 l 5
 201 747 l 5
 217 760 l 5
 334 760 l 5
 326 698 l 5
 260 696 l 5
 155 -157 l 5
 218 -159 l 5
 210 -227 l 5
EndSplineSet
Validated: 1
EndChar

StartChar: backslash
Encoding: 92 92 118
Width: 332
VWidth: 0
Flags: W
HStem: 733 20G<-8.17355 66>
LayerCount: 3
Fore
SplineSet
66 748 m 9
 346 -220 l 17
 268 -215 l 9
 -14 753 l 17
 66 748 l 9
EndSplineSet
Validated: 1
EndChar

StartChar: bracketright
Encoding: 93 93 119
Width: 301
VWidth: 0
Flags: W
HStem: -227 68<44 107> 696 64<154 212>
VStem: 36 248
LayerCount: 3
Fore
SplineSet
36 -227 m 1
 44 -159 l 1
 107 -157 l 1
 212 696 l 1
 147 698 l 1
 154 760 l 1
 271 760 l 1
 284 747 l 1
 167 -214 l 1
 153 -227 l 1
 36 -227 l 1
EndSplineSet
Validated: 1
EndChar

StartChar: asciicircum
Encoding: 94 94 120
Width: 398
VWidth: 0
Flags: W
HStem: 619 167
VStem: 162 233
LayerCount: 3
Fore
SplineSet
202 619 m 1
 162 648 l 1
 265 775 l 1
 276 781 287 786 299 786 c 0
 302 786 307 786 310 785 c 1
 395 652 l 1
 347 622 l 1
 281 717 l 1
 202 619 l 1
EndSplineSet
Validated: 1
EndChar

StartChar: underscore
Encoding: 95 95 121
Width: 456
VWidth: 0
Flags: W
HStem: -80 64<20 423>
LayerCount: 3
Fore
SplineSet
20 -16 m 17
 437 -16 l 1
 423 -80 l 1
 7 -80 l 9
 20 -16 l 17
EndSplineSet
Validated: 1
EndChar

StartChar: grave
Encoding: 96 96 122
Width: 187
VWidth: 0
Flags: W
HStem: 532 244
VStem: 94 88<679.496 729.154>
LayerCount: 3
Back
SplineSet
210 534 m 21
 148 572 126 626 126 664 c 7
 126 701 142 731 153 739 c 5
 132 764 l 29
 5 691 l 21
 5 633 51 536 191 494 c 13
 210 534 l 21
EndSplineSet
Fore
SplineSet
94 725 m 13
 182 776 l 21
 189 728 218 616 244 568 c 13
 204 532 l 21
 160 567 115 658 94 725 c 13
EndSplineSet
Validated: 1
EndChar

StartChar: braceleft
Encoding: 123 123 123
Width: 292
VWidth: 0
Flags: W
HStem: -227 68<147 201> 250 70<57 115> 698 62<248.229 314>
VStem: 43 283
LayerCount: 3
Fore
SplineSet
201 -227 m 1
 84 -227 l 1
 74 -214 l 1
 74 -214 89 21 115 250 c 1
 43 250 l 1
 57 320 l 1
 123 320 l 1
 153 561 192 747 192 747 c 1
 208 760 l 1
 326 760 l 1
 314 698 l 1
 252 696 l 1
 252 696 213 508 187 296 c 0
 161 84 147 -157 147 -157 c 1
 215 -159 l 1
 201 -227 l 1
EndSplineSet
Validated: 1
EndChar

StartChar: bar
Encoding: 124 124 124
Width: 308
VWidth: 0
Flags: W
HStem: 740 20G<219.531 279>
VStem: 102 177
LayerCount: 3
Fore
SplineSet
159 -220 m 17
 102 -212 l 1
 222 760 l 1
 279 753 l 9
 159 -220 l 17
EndSplineSet
Validated: 1
EndChar

StartChar: braceright
Encoding: 125 125 125
Width: 292
VWidth: 0
Flags: W
HStem: -227 62<44 109.771> 213 70<243 301> 692 68<157 211>
VStem: 32 283
LayerCount: 3
Fore
SplineSet
157 760 m 1
 274 760 l 1
 284 747 l 1
 284 747 269 512 243 283 c 1
 315 283 l 1
 301 213 l 1
 235 213 l 1
 205 -28 166 -214 166 -214 c 1
 150 -227 l 1
 32 -227 l 1
 44 -165 l 1
 106 -163 l 1
 106 -163 145 25 171 237 c 0
 197 449 211 690 211 690 c 1
 143 692 l 1
 157 760 l 1
EndSplineSet
Validated: 1
EndChar

StartChar: asciitilde
Encoding: 126 126 126
Width: 345
VWidth: 0
Flags: W
HStem: 226 84<196.719 284.279> 272 83<61.9852 160.089>
VStem: 307 38<325.518 336.452>
LayerCount: 3
Back
SplineSet
0 260 m 21x40
 35.6542 329.29 75.834 354.931 115.554 354.931 c 7x40
 174.097 354.931 231.641 305.092 272.225 305.092 c 7
 285.968 305.092 297.767 313.233 307 327 c 5
 345 307 l 5
 316.526 248.828 285.335 221.964 253.348 221.964 c 7x80
 202.424 221.964 140.484 272.24 93.2861 272.24 c 7
 73.2979 272.24 58.3398 263.119 41 240 c 13
 0 260 l 21x40
EndSplineSet
Fore
SplineSet
0 250 m 17x60
 36 319 76 355 116 355 c 3x60
 174 355 223 310 264 310 c 3
 278 310 298 333 307 347 c 1
 345 334 l 1
 330 273 266 226 234 226 c 3xa0
 183 226 140 272 93 272 c 3
 73 272 58 253 41 230 c 9
 0 250 l 17x60
EndSplineSet
Validated: 1
EndChar

StartChar: uni0080
Encoding: 128 128 128
Width: 668
VWidth: 0
Flags: W
HStem: 0 44<34 60.0915 291.195 309 368 391.798 615.055 634> 463 83<316.254 415.655> 520 20G<68 229>
VStem: 125 102<69 430.995> 451 102<69 426.608>
LayerCount: 3
Fore
SplineSet
553 375 m 2xd8
 553 69 l 1
 640 48 l 1
 634 0 l 1
 361 0 l 1
 368 44 l 1
 451 69 l 1
 451 351 l 2
 451 429 406 463 346 463 c 3xd8
 302 463 258 445 227 411 c 9
 227 69 l 1
 317 48 l 1
 309 0 l 1
 28 0 l 1
 34 44 l 1
 125 69 l 1
 125 439 l 1
 32 470 l 1
 38 516 l 1
 218 540 l 1xb8
 229 528 l 1
 218 451 l 1
 224 451 l 1
 265 500 331 546 407 546 c 3
 502 546 553 483 553 375 c 2xd8
EndSplineSet
Validated: 1
EndChar

StartChar: exclamdown
Encoding: 161 161 161
Width: 294
VWidth: 0
Flags: W
HStem: 403 149<94.625 199.969>
VStem: 72 151<424.847 529.125> 88 119<-243.996 53.6669> 121 54<99.4046 315>
LayerCount: 3
Fore
SplineSet
121 323 m 2x90
 121 327 l 1
 175 315 l 1
 175 313 l 2x90
 190 118 207 -161 207 -227 c 0
 207 -228 207 -228 207 -229 c 0
 202 -246 149 -253 127 -253 c 3
 111 -253 88 -248 88 -229 c 3xa0
 88 -127 105 128 121 323 c 2x90
72 475 m 3xc0
 72 518 106 552 148 552 c 3
 190 552 223 517 223 474 c 3
 223 433 188 403 148 403 c 3
 107 403 72 434 72 475 c 3xc0
EndSplineSet
Validated: 1
EndChar

StartChar: cent
Encoding: 162 162 162
Width: 486
VWidth: 0
Flags: W
HStem: -18 70<275.48 394.962> 483 58<220.503 259>
VStem: 51 117<155.949 375.001>
LayerCount: 3
Fore
SplineSet
339 542 m 1
 418 534 453 494 453 451 c 0
 453 415 428 392 377 388 c 1
 373 406 361 449 328 472 c 1
 275 63 l 1
 292 56 312 52 334 52 c 0
 389 52 428 74 459 95 c 1
 462 90 468 76 473 60 c 1
 422 7 363 -18 279 -18 c 0
 272 -18 266 -18 260 -17 c 1
 253 -69 l 1
 181 -81 l 1
 192 1 l 1
 104 41 51 140 51 252 c 0
 51 414 153 521 268 541 c 1
 278 614 l 1
 350 627 l 1
 339 542 l 1
211 114 m 1
 259 483 l 1
 201 468 168 390 168 287 c 0
 168 227 179 161 211 114 c 1
EndSplineSet
Validated: 1
EndChar

StartChar: sterling
Encoding: 163 163 163
Width: 645
VWidth: 0
Flags: W
HStem: 0 60<235 514> 0 45<28 53.856> 542 21G<475 528.99> 693 64<326.102 449.568>
VStem: 156 118<107.244 332 397 594.042> 475 52<550 586.987>
LayerCount: 3
Fore
SplineSet
546 733 m 1x7c
 527 542 l 1
 475 550 l 1
 450 679 l 1
 437 686 421 693 399 693 c 0
 298 693 278 628 274 426 c 2
 274 397 l 1
 407 405 l 1
 400 344 l 1
 273 336 l 1
 272 312 l 2
 270 216 264 119 235 60 c 1xbc
 514 58 l 1
 593 211 l 1
 645 200 l 1
 622 0 l 1
 23 0 l 1
 28 45 l 1
 129 73 l 1
 148 134 151 189 153 279 c 2
 154 332 l 1
 46 326 l 1
 53 387 l 1
 156 393 l 1
 158 476 l 2
 164 671 268 757 405 757 c 0
 454 757 498 753 546 733 c 1x7c
EndSplineSet
Validated: 1
EndChar

StartChar: currency
Encoding: 164 164 164
Width: 471
VWidth: 0
Flags: W
HStem: 131 59<175.164 299.391> 406 59<177.014 298.886>
VStem: 77 65<224.485 370.641> 333 64<224.289 370.548>
LayerCount: 3
Fore
SplineSet
235 406 m 0
 178 406 142 357 142 299 c 0
 142 235 178 190 236 190 c 0
 296 190 333 233 333 295 c 0
 333 352 305 406 235 406 c 0
106 199 m 1
 88 226 77 260 77 296 c 0
 77 327 87 356 102 380 c 1
 64 419 l 1
 115 460 l 1
 145 429 l 1
 173 452 207 465 238 465 c 0
 276 465 308 454 333 435 c 1
 370 470 l 1
 409 417 l 1
 375 385 l 1
 390 359 397 328 397 297 c 0
 397 265 387 234 369 207 c 1
 413 164 l 1
 361 122 l 1
 325 160 l 1
 299 143 266 131 233 131 c 0
 203 131 175 140 152 154 c 1
 117 117 l 1
 71 165 l 1
 106 199 l 1
EndSplineSet
Validated: 1
EndChar

StartChar: yen
Encoding: 165 165 165
Width: 610
VWidth: 0
Flags: W
HStem: 0 49<420.328 438> 707 46<334.133 360 471 485.518>
LayerCount: 3
Fore
SplineSet
287 193 m 1
 186 186 l 1
 200 247 l 1
 295 254 l 1
 301 306 l 1
 170 682 l 1
 104 707 l 1
 116 753 l 1
 371 753 l 1
 360 707 l 1
 277 684 l 1
 380 388 l 1
 549 682 l 1
 460 707 l 1
 471 753 l 1
 694 753 l 1
 683 707 l 1
 618 684 l 1
 400 320 l 1
 393 259 l 1
 496 266 l 1
 482 205 l 1
 385 198 l 1
 369 69 l 1
 449 49 l 1
 438 0 l 1
 183 0 l 1
 194 45 l 1
 273 73 l 1
 287 193 l 1
EndSplineSet
Validated: 1
EndChar

StartChar: brokenbar
Encoding: 166 166 166
Width: 345
VWidth: 0
Flags: W
HStem: 740 20G<141 208>
VStem: 141 67<-212 254 327 753>
LayerCount: 3
Fore
SplineSet
141 -212 m 17
 141 261 l 1
 208 254 l 1
 208 -220 l 9
 141 -212 l 17
141 327 m 17
 141 760 l 1
 208 753 l 1
 205 320 l 9
 141 327 l 17
EndSplineSet
Validated: 1
EndChar

StartChar: section
Encoding: 167 167 167
Width: 445
VWidth: 0
Flags: W
HStem: -10 48<139.86 284.127> 718 42<162.45 281.394>
VStem: 38 45<157.705 187> 50 89<569.835 680.194> 327 91<92.6934 189.787> 328 42<579 608.607>
LayerCount: 3
Fore
SplineSet
50 479 m 1xd8
 276 345 l 2
 346 304 418 256 418 174 c 11
 418 61 309 -10 197 -10 c 27
 127 -10 70 17 31 62 c 9
 38 193 l 17
 83 187 l 1xe8
 106 93 l 1
 129 61 166 38 204 38 c 3
 255 38 327 61 327 143 c 3
 327 247 49 269 49 452 c 3
 49 459 49 474 50 479 c 1xd8
415 285 m 1
 220 397 l 2
 142 443 50 490 50 595 c 3
 50 709 141 760 236 760 c 3
 278 760 334 749 378 709 c 1
 378 705 370 571 370 571 c 25
 328 579 l 25
 305 674 l 17
 301 685 264 718 222 718 c 3
 173 718 139 693 139 630 c 3xd4
 139 491 419 480 419 316 c 19
 419 303 418 296 415 285 c 1
EndSplineSet
Validated: 1
EndChar

StartChar: dieresis
Encoding: 168 168 168
Width: 245
VWidth: 0
Flags: W
HStem: -12 129<85.2005 181.697 321.2 417.697>
VStem: 68 131<5.40646 101.159> 304 131<5.40646 101.159>
LayerCount: 3
Fore
SplineSet
369 117 m 27
 405 117 435 90 435 55 c 27
 435 18 405 -12 369 -12 c 27
 333 -12 304 19 304 56 c 27
 304 91 334 117 369 117 c 27
133 117 m 27
 169 117 199 90 199 55 c 27
 199 18 169 -12 133 -12 c 27
 97 -12 68 19 68 56 c 27
 68 91 98 117 133 117 c 27
EndSplineSet
Validated: 1
EndChar

StartChar: copyright
Encoding: 169 169 169
Width: 837
VWidth: 0
Flags: W
HStem: -16 63<300.929 526.424> 150 54<367.778 524.853> 584 42<352.471 504.137> 715 61<307.943 531.774>
VStem: 40 73<248.112 504.871> 199 87<291.119 481.04> 529 32<475 514.936> 724 73<251.059 508.47>
LayerCount: 3
Fore
SplineSet
415 715 m 7
 241 715 113 560 113 382 c 7
 113 188 238 47 414 47 c 7
 582 47 724 182 724 371 c 7
 724 545 629 715 415 715 c 7
797 377 m 7
 797 168 629 -16 409 -16 c 7
 189 -16 40 156 40 375 c 7
 40 608 219 776 415 776 c 7
 663 776 797 590 797 377 c 7
286 401 m 7
 286 260 363 204 451 204 c 7
 493 204 539 216 576 246 c 5
 583 240 589 227 593 218 c 5
 543 170 481 150 421 150 c 7
 308 150 199 229 199 376 c 7
 199 485 271 626 439 626 c 7
 488 626 535 616 570 589 c 5
 561 471 l 5
 529 475 l 5
 515 553 l 5
 498 575 465 584 418 584 c 7
 341 584 286 520 286 401 c 7
EndSplineSet
Validated: 1
EndChar

StartChar: ordfeminine
Encoding: 170 170 170
Width: 245
VWidth: 0
Flags: W
HStem: 174 35<21 222> 246 26<74.4772 119.159 207 216> 349 17<103.906 140> 446 24<79.3258 126.298>
VStem: 29 42<272.507 332.949> 39 33<405.543 443.186> 140 40<276.439 349 362.085 439.662>
LayerCount: 3
Fore
SplineSet
21 209 m 17xf2
 226 209 l 1
 222 174 l 1
 17 174 l 9
 21 209 l 17xf2
140 349 m 17
 80 340 71 324 71 301 c 3xfa
 71 281 81 272 98 272 c 3
 118 272 134 288 140 298 c 1
 140 349 l 17
183 247 m 3
 155 247 145 265 145 280 c 2
 145 283 l 1
 142 283 l 1
 134 266 108 246 76 246 c 3
 51 246 29 260 29 290 c 3xfa
 29 325 53 350 140 366 c 1
 140 382 l 2
 140 415 132 446 100 446 c 3
 77 446 76 429 72 399 c 1
 59 399 39 400 39 424 c 3xf6
 39 450 86 470 120 470 c 3
 163 470 180 446 180 395 c 2
 180 307 l 2
 180 285 184 278 207 275 c 2
 219 273 l 1
 216 252 l 1
 204 250 197 247 183 247 c 3
EndSplineSet
Validated: 1
EndChar

StartChar: guillemotleft
Encoding: 171 171 171
Width: 622
VWidth: 0
Flags: W
LayerCount: 3
Fore
SplineSet
232 287 m 9
 467 497 l 25
 490 457 l 25
 300 286 l 25
 492 89 l 25
 464 47 l 25
 233 275 l 17
 232 287 l 9
98 287 m 9
 334 497 l 25
 356 457 l 25
 166 286 l 25
 358 89 l 25
 330 47 l 25
 99 275 l 17
 98 287 l 9
EndSplineSet
Validated: 1
EndChar

StartChar: logicalnot
Encoding: 172 172 172
Width: 443
VWidth: 0
Flags: W
HStem: 338 64<35 343>
VStem: 343 64<232 338>
LayerCount: 3
Fore
SplineSet
35 402 m 17
 406 402 l 1
 407 232 l 1
 343 221 l 1
 343 338 l 1
 28 338 l 9
 35 402 l 17
EndSplineSet
Validated: 1
EndChar

StartChar: uni00AD
Encoding: 173 173 173
Width: 345
VWidth: 0
Flags: W
HStem: 250 61<55 295>
VStem: 48 254
LayerCount: 3
Fore
SplineSet
55 311 m 17
 302 311 l 1
 295 250 l 1
 48 250 l 9
 55 311 l 17
EndSplineSet
Validated: 1
EndChar

StartChar: registered
Encoding: 174 174 174
Width: 447
VWidth: 0
Flags: W
HStem: 367 32<149.428 283.264> 470 14<118 144.88 189.921 216> 568 16<183 215> 676 14<119 147.39> 680 18<183.521 235.49> 753 31<155.706 286.451>
VStem: 19 37<494.391 655.283> 148 35<493 568 584 670> 256 37<600.651 669.999> 381 38<491.886 656.949>
LayerCount: 3
Fore
SplineSet
419 574 m 0xe7c0
 419 467 327 367 214 367 c 0
 101 367 19 461 19 573 c 0
 19 692 117 784 217 784 c 0
 344 784 419 683 419 574 c 0xe7c0
217 753 m 0
 128 753 56 668 56 577 c 0
 56 477 126 399 216 399 c 0
 303 399 381 474 381 571 c 0
 381 660 327 753 217 753 c 0
213 584 m 2
 235 584 256 604 256 630 c 0
 256 660 237 680 205 680 c 0xefc0
 192 680 183 679 183 679 c 1
 183 584 l 1
 213 584 l 2
293 640 m 0
 293 617 275 592 241 579 c 1
 274 534 l 2
 295 504 304 491 327 484 c 1
 333 483 l 1
 330 470 l 1
 322 467 315 466 308 466 c 0
 280 466 260 488 244 516 c 2
 215 568 l 1
 183 568 l 1
 183 493 l 1
 217 485 l 1
 216 470 l 1
 116 470 l 1
 118 484 l 1
 148 492 l 1
 148 670 l 1
 117 676 l 1
 119 690 l 1xf7c0
 146 694 175 698 202 698 c 0
 256 698 293 683 293 640 c 0
EndSplineSet
Validated: 1
EndChar

StartChar: macron
Encoding: 175 175 175
Width: 345
VWidth: 0
Flags: W
HStem: 641 61<55 208.954> 652 61<141.046 295>
VStem: 48 254
LayerCount: 3
Fore
SplineSet
55 702 m 17xa0
 302 713 l 1
 295 652 l 1x60
 48 641 l 9
 55 702 l 17xa0
EndSplineSet
Validated: 1
EndChar

StartChar: degree
Encoding: 176 176 176
Width: 245
VWidth: 0
Flags: W
HStem: 574 29<88.7387 157.974> 749 29<83.8725 151.968>
VStem: 22 43<619.113 736.506> 175 43<614.066 732.233>
LayerCount: 3
Fore
SplineSet
117 749 m 3
 81 749 65 715 65 681 c 3
 65 644 84 603 123 603 c 3
 156 603 175 628 175 672 c 3
 175 710 155 749 117 749 c 3
124 778 m 3
 182 778 218 737 218 680 c 3
 218 625 178 574 116 574 c 3
 60 574 22 612 22 674 c 3
 22 730 67 778 124 778 c 3
EndSplineSet
Validated: 1
EndChar

StartChar: plusminus
Encoding: 177 177 177
Width: 345
VWidth: 0
Flags: W
HStem: 38 61<55 295> 248 61<32 139 205 311>
VStem: 139 66<132 248 309 422>
LayerCount: 3
Fore
SplineSet
55 99 m 17
 302 99 l 1
 295 38 l 1
 48 38 l 9
 55 99 l 17
205 248 m 1
 206 125 l 1
 139 132 l 1
 139 248 l 1
 25 248 l 1
 32 309 l 1
 139 309 l 1
 139 429 l 1
 204 422 l 1
 205 309 l 1
 318 309 l 1
 311 248 l 1
 205 248 l 1
EndSplineSet
Validated: 1
EndChar

StartChar: uni00B2
Encoding: 178 178 178
Width: 157
VWidth: 0
Flags: W
HStem: 612 26<49 125> 768 20<53.1897 86.2562>
VStem: 22 26<729.511 765.93> 93 33<694.503 765.836>
LayerCount: 3
Back
SplineSet
81.2998 781.2 m 5
 81.2998 631.801 l 21
 114.3 625.801 l 13
 112.5 611.101 l 5
 19.2002 611.101 l 5
 20.7002 624.601 l 5
 51 633 l 5
 51 753 l 5
 22.7998 753.301 l 5
 24.2998 767.4 l 5
 76.2002 781.2 l 5
 81.2998 781.2 l 5
EndSplineSet
Fore
SplineSet
48 724 m 1
 30 726 22 731 22 746 c 3
 22 767 56 788 79 788 c 3
 105 788 126 768 126 740 c 3
 126 706 109 691 73 659 c 2
 49 638 l 9
 129 638 l 17
 125 612 l 9
 18 612 l 25
 17 631 l 17
 69 683 l 18
 84 697 93 714 93 732 c 3
 93 752 85 768 67 768 c 3
 50 768 48 742 48 724 c 1
EndSplineSet
Validated: 1
EndChar

StartChar: uni00B3
Encoding: 179 179 179
Width: 364
VWidth: 0
Flags: W
HStem: 568 18<56.0148 97.2158> 668 17<44.9528 68.7166> 768 20<57.5715 92.7164>
VStem: 23 24<591.502 615.673 732.018 760.387> 44 51<673.301 691.666> 100 30<704.666 764.905> 108 32<590.78 659.916>
LayerCount: 3
Back
SplineSet
48 724.5 m 5
 30 726.3 22.5 730.8 22.5 745.8 c 7
 22.5 766.8 56.0996 787.5 78.5996 787.5 c 7
 105.3 787.5 126 768.3 126 739.8 c 7
 126 706.2 108.899 690.6 72.8994 659.4 c 6
 49.2002 637.8 l 13
 129.3 637.8 l 21
 125.399 612 l 13
 18 612 l 29
 16.7998 630.6 l 21
 69 682.8 l 22
 84.2998 697.2 93.2998 714 93.2998 731.7 c 7
 93.2998 751.5 84.5996 768.3 67.2002 768.3 c 7
 50.3994 768.3 48 742.2 48 724.5 c 5
EndSplineSet
Fore
SplineSet
100 737 m 3xec
 100 753 90 768 73 768 c 3
 62 768 50 757 50 726 c 1
 34 727 25 732 25 744 c 27
 25 772 64 788 84 788 c 3
 111 788 130 767 130 745 c 3
 130 721 115 698 95 687 c 1
 95 684 l 1xec
 124 676 140 653 140 630 c 3
 140 599 115 568 78 568 c 3
 34 568 23 588 23 602 c 3
 23 616 40 622 47 623 c 1
 50 604 53 586 75 586 c 3
 97 586 108 604 108 625 c 3
 108 646 92 669 69 669 c 3
 63 669 54 668 47 668 c 1xf2
 46 673 44 678 44 684 c 0
 44 685 l 1
 50 687 100 695 100 737 c 3xec
EndSplineSet
Validated: 1
EndChar

StartChar: acute
Encoding: 180 180 180
Width: 224
VWidth: 0
Flags: W
HStem: 532 244
VStem: 5 205
LayerCount: 3
Fore
SplineSet
210 725 m 17
 175 658 107 567 49 532 c 9
 5 568 l 17
 43 616 95 728 111 776 c 9
 210 725 l 17
EndSplineSet
Validated: 1
EndChar

StartChar: uni00B5
Encoding: 181 181 181
Width: 624
VWidth: 0
Flags: W
HStem: -15 79<212.963 321.214> -4 51<572 594> 468 55<315 336.812> 520 20G<22 199 315 506>
VStem: 81 81<-219 -115.751> 97 102<103.65 446> 406 100<68.3484 78 97.1559 443>
LayerCount: 3
Fore
SplineSet
97 299 m 2x86
 97 446 l 1
 14 479 l 1
 22 527 l 1
 185 540 l 1x96
 199 525 l 1
 199 191 l 2
 199 100 238 64 293 64 c 0
 348 64 375 90 406 114 c 1
 406 443 l 1
 309 468 l 1
 315 523 l 1xa6
 493 540 l 1
 506 525 l 1
 506 129 l 2
 506 65 532 62 572 53 c 2
 599 47 l 1
 594 -4 l 1x56
 556 -13 538 -15 502 -15 c 0
 441 -15 413 23 413 73 c 0
 413 76 413 75 413 78 c 1
 406 78 l 1
 351 17 300 -15 232 -15 c 0
 194 -15 166 -2 147 23 c 1
 142 23 l 1
 144 12 148 -13 151 -52 c 2
 162 -235 l 1
 81 -219 l 1x8a
 82 -203 97 122 97 299 c 2x86
EndSplineSet
Validated: 1
EndChar

StartChar: paragraph
Encoding: 182 182 182
Width: 839
VWidth: 0
Flags: W
HStem: 0 45<310 335.856 717.147 744> 291 59<243.02 408.376> 699 55<237.737 411> 707 46<710.9 743>
VStem: 29 125<437.374 610.9> 411 101<73 294 351 684> 548 92<73 682>
LayerCount: 3
Fore
SplineSet
526 687 m 1xce
 512 684 l 1
 512 69 l 1
 525 67 l 1
 548 73 l 1
 548 682 l 1
 526 687 l 1xce
749 753 m 17xde
 743 707 l 1xde
 640 684 l 1
 640 69 l 1
 750 49 l 1
 744 0 l 1
 305 0 l 1
 310 45 l 1
 411 73 l 1
 411 294 l 1
 385 292 358 291 332 291 c 0
 174 291 29 334 29 511 c 0
 29 655 151 754 298 754 c 10xee
 749 753 l 17xde
411 698 m 1
 386 699 353 699 347 699 c 0xee
 217 699 154 641 154 533 c 0
 154 430 211 350 343 350 c 0
 368 350 407 354 407 354 c 1
 411 351 l 1
 411 698 l 1
EndSplineSet
Validated: 1
EndChar

StartChar: periodcentered
Encoding: 183 183 183
Width: 245
VWidth: 0
Flags: W
HStem: 231 143<71.375 173.5>
VStem: 50 145<252.625 354.125>
LayerCount: 3
Fore
SplineSet
122 374 m 27
 162 374 195 344 195 305 c 27
 195 264 162 231 122 231 c 27
 82 231 50 265 50 306 c 27
 50 345 83 374 122 374 c 27
EndSplineSet
Validated: 1
EndChar

StartChar: cedilla
Encoding: 184 184 184
Width: 224
VWidth: 0
Flags: W
HStem: -82 244
VStem: 18 205
LayerCount: 3
Fore
SplineSet
18 -31 m 17
 67 17 144 114 179 162 c 9
 223 126 l 17
 208 65 148 -37 117 -82 c 9
 18 -31 l 17
EndSplineSet
Validated: 1
EndChar

StartChar: uni00B9
Encoding: 185 185 185
Width: 134
VWidth: 0
Flags: W
HStem: 611 14<21 47.88 81 112> 753 14<24 50.624>
VStem: 51 30<633 753>
LayerCount: 3
Fore
SplineSet
81 781 m 1
 81 632 l 17
 114 626 l 9
 112 611 l 1
 19 611 l 1
 21 625 l 1
 51 633 l 1
 51 753 l 1
 23 753 l 1
 24 767 l 1
 76 781 l 1
 81 781 l 1
EndSplineSet
Validated: 1
EndChar

StartChar: ordmasculine
Encoding: 186 186 186
Width: 245
VWidth: 0
Flags: W
HStem: 174 35<21 222> 243 24<94.6176 151.409> 443 25<85.0244 143.91>
VStem: 23 44<286.116 427.364> 170 44<282.124 425.701>
LayerCount: 3
Fore
SplineSet
21 209 m 17
 226 209 l 1
 222 174 l 1
 17 174 l 9
 21 209 l 17
67 364 m 3
 67 305 91 267 123 267 c 3
 154 267 170 296 170 348 c 3
 170 403 149 443 114 443 c 3
 84 443 67 417 67 364 c 3
214 356 m 3
 214 289 173 243 117 243 c 3
 53 243 23 290 23 353 c 3
 23 428 70 468 123 468 c 3
 183 468 214 423 214 356 c 3
EndSplineSet
Validated: 1
EndChar

StartChar: guillemotright
Encoding: 187 187 187
Width: 603
VWidth: 0
Flags: W
LayerCount: 3
Fore
SplineSet
485 257 m 9
 250 47 l 25
 227 88 l 25
 418 262 l 25
 225 455 l 25
 253 497 l 25
 484 269 l 17
 485 257 l 9
362 257 m 9
 127 47 l 25
 104 88 l 25
 295 262 l 25
 102 455 l 25
 130 497 l 25
 361 269 l 17
 362 257 l 9
EndSplineSet
Validated: 1
EndChar

StartChar: onequarter
Encoding: 188 188 188
Width: 633
VWidth: 0
Flags: W
HStem: -70 25<440 460.241 563.126 586> 52 38<384 487 538 588> 304 25<42 63.964 170.093 196> 542 23<48 75.1137>
VStem: 93 51<341 541> 487 51<-33 52 92 236>
LayerCount: 3
Fore
SplineSet
484 280 m 1
 538 289 l 1
 537 92 l 1
 593 92 l 1
 588 52 l 1
 538 52 l 1
 538 -35 l 1
 590 -45 l 1
 586 -70 l 1
 438 -70 l 1
 440 -47 l 1
 487 -33 l 1
 487 52 l 1
 348 52 l 1
 344 84 l 1
 484 280 l 1
488 90 m 1
 487 236 l 1
 384 90 l 1
 488 90 l 1
144 588 m 1
 144 339 l 17
 198 329 l 9
 196 304 l 1
 40 304 l 1
 42 327 l 1
 93 341 l 1
 93 541 l 1
 46 542 l 1
 48 565 l 1
 135 588 l 1
 144 588 l 1
502 581 m 1
 566 586 l 1
 151 -13 l 1
 84 -18 l 1
 502 581 l 1
EndSplineSet
Validated: 1
EndChar

StartChar: onehalf
Encoding: 189 189 189
Width: 634
VWidth: 0
Flags: W
HStem: 0 43<460 588> 260 32<467.504 520.982> 304 25<42 63.5333 169.576 195> 542 23<48 74.8021>
VStem: 92 51<341 541> 416 42<199.61 255.964> 534 54<144.293 253.855>
LayerCount: 3
Fore
SplineSet
458 188 m 1
 428 190 416 198 416 223 c 3
 416 258 472 292 510 292 c 3
 554 292 588 260 588 213 c 3
 588 157 560 131 500 79 c 2
 460 43 l 9
 594 43 l 17
 588 0 l 9
 408 0 l 25
 406 31 l 17
 494 118 l 18
 519 142 534 170 534 200 c 3
 534 232 520 260 490 260 c 3
 462 260 458 217 458 188 c 1
143 588 m 1
 143 339 l 17
 198 329 l 9
 195 304 l 1
 40 304 l 1
 42 327 l 1
 92 341 l 1
 92 541 l 1
 46 542 l 1
 48 565 l 1
 134 588 l 1
 143 588 l 1
502 581 m 1
 566 586 l 1
 150 -13 l 1
 84 -18 l 1
 502 581 l 1
EndSplineSet
Validated: 1
EndChar

StartChar: threequarters
Encoding: 190 190 190
Width: 640
VWidth: 0
Flags: W
HStem: -70 25<447 467.241 569.126 594> 52 38<392 494 544 595> 230 32<94.738 164.508> 398 28<76.981 114.691> 564 33<97.3476 156.182>
VStem: 40 40<271.275 306.118 510.49 552.177> 168 50<460.394 557.699> 182 52<272.636 379.801> 494 50<-33 52 92 236>
LayerCount: 3
Fore
SplineSet
509 581 m 1xfc80
 573 586 l 1
 158 -13 l 1
 91 -18 l 1
 509 581 l 1xfc80
494 90 m 1
 494 236 l 1
 392 90 l 1
 494 90 l 1
491 280 m 1
 544 289 l 1
 544 92 l 1
 600 92 l 1
 595 52 l 1
 544 52 l 1
 544 -35 l 1
 596 -45 l 1
 594 -70 l 1
 444 -70 l 1
 447 -47 l 1
 494 -33 l 1
 494 52 l 1
 355 52 l 1
 350 84 l 1
 491 280 l 1
168 513 m 0xfe80
 168 540 151 564 124 564 c 0
 104 564 85 546 84 494 c 1
 59 496 44 504 44 524 c 0
 44 572 108 597 141 597 c 0
 187 597 218 564 218 526 c 0xfe80
 218 486 194 448 160 429 c 1
 160 424 l 1
 208 411 234 374 234 334 c 0
 234 283 194 230 131 230 c 0
 59 230 40 264 40 288 c 0
 40 312 68 320 80 322 c 1
 86 292 90 262 126 262 c 0
 163 262 182 290 182 326 c 0xfd80
 182 362 154 399 116 399 c 0
 106 399 92 398 80 398 c 1
 78 406 76 414 76 424 c 0
 76 425 76 426 76 426 c 1
 84 430 168 442 168 513 c 0xfe80
EndSplineSet
Validated: 1
EndChar

StartChar: questiondown
Encoding: 191 191 191
Width: 465
VWidth: 0
Flags: W
HStem: -255 66<195.786 298.141> 403 149<185.625 290.969>
VStem: 56 103<-151.77 -24.91> 163 151<424.847 529.125> 244 100<145.029 248.588> 328 89<-157.915 -88.5338>
LayerCount: 3
Fore
SplineSet
193 282 m 2xe8
 190 284 l 1
 193 286 l 2
 213 304 232 312 251 312 c 3
 304 312 344 256 344 207 c 3xe8
 344 100 159 35 159 -89 c 3
 159 -145 205 -189 246 -189 c 3
 292 -189 324 -158 328 -76 c 2
 328 -73 l 1
 331 -73 l 2
 364 -73 417 -77 417 -139 c 3xe4
 417 -199 300 -255 205 -255 c 3
 111 -255 56 -184 56 -103 c 3
 56 41 244 98 244 188 c 3
 244 212 227 252 193 282 c 2xe8
163 475 m 3xf0
 163 518 197 552 239 552 c 3
 281 552 314 517 314 474 c 3
 314 433 279 403 239 403 c 3
 198 403 163 434 163 475 c 3xf0
EndSplineSet
Validated: 1
EndChar

StartChar: Aring
Encoding: 197 197 198
Width: 773
VWidth: 0
HStem: 0 49<274.231 281 459 470.361 758.009 763> 255 61<264 479> 852.601 23.199<376.686 430.971>
VStem: 328.6 33.4<749.817 842.223> 449 36.4<743.372 840.9>
LayerCount: 3
Fore
SplineSet
410.2 875.8 m 0
 456.6 875.8 485.4 843 485.4 797.4 c 0
 485.4 773.516 475.971 750.574 459.416 734.59 c 1
 686 75 l 1
 768 49 l 1
 763 0 l 1
 452 0 l 1
 459 45 l 1
 563 78 l 1
 501 255 l 1
 242 255 l 1
 175 75 l 1
 288 49 l 1
 281 0 l 1
 5 0 l 1
 11 45 l 1
 93 78 l 1
 353.018 730.498 l 1
 337.598 744.313 328.6 765.615 328.6 792.601 c 0
 328.6 837.4 364.6 875.8 410.2 875.8 c 0
403.6 852.601 m 0
 374.8 852.601 362 825.4 362 798.2 c 0
 362 768.601 377.2 735.8 408.4 735.8 c 0
 434.8 735.8 449 755.8 449 791 c 0
 449 821.4 434 852.601 403.6 852.601 c 0
264 316 m 1
 479 316 l 1
 378 620 l 1
 264 316 l 1
EndSplineSet
Validated: 524289
EndChar

StartChar: germandbls
Encoding: 223 223 222
Width: 760
VWidth: 0
Flags: W
HStem: -21 60<509.569 626.843> 0 44<31 56.3637 316.598 342> 480 41<46 73.9552> 720 61<267.933 394.745>
VStem: 123 101<73 480 541 623.703> 388 82<376.37 457.384> 448 94<524.86 661.815> 648 88<66.5392 154.239>
LayerCount: 3
Fore
SplineSet
542 618 m 3x7b
 542 518 470 461 470 422 c 3
 470 318 736 306 736 140 c 3
 736 50 642 -21 549 -21 c 3
 441 -21 374 30 374 85 c 3
 374 126 418 152 454 155 c 1
 473 76 522 39 568 39 c 3
 611 39 648 64 648 114 c 3
 648 199 388 222 388 385 c 3xbd
 388 453 448 487 448 582 c 3
 448 652 402 720 334 720 c 3
 280 720 224 690 224 583 c 2
 224 73 l 9
 347 51 l 25
 342 0 l 17
 24 0 l 9
 31 44 l 25
 123 70 l 17
 123 480 l 1
 41 480 l 1
 46 521 l 1
 124 541 l 1
 134 662 230 781 347 781 c 3
 482 781 542 717 542 618 c 3x7b
EndSplineSet
Validated: 1
EndChar

StartChar: uniF002
Encoding: 61442 61442 255
Width: 716
VWidth: 0
HStem: 0 48<31 60.9753 282.654 304 362 389.043 611.396 636> 480 54<224 357> 480 41<38 66.0204> 716 73<262.491 388.723> 749 20G<527 546>
VStem: 123 101<70 480 543 624.834> 445 101<70 674.076>
LayerCount: 3
Back
SplineSet
304 717 m 7x8e
 251.914 717 224 656 224 583 c 6
 224 534 l 5
 343 533.597 l 6
 377.013 533.504 495 537 537 540 c 5
 552 525 l 5
 552 70 l 13
 649 49 l 29
 642 0 l 21
 358 0 l 13
 365 48 l 29
 451 70 l 29
 451 446 l 21
 349 479 l 29
 224 480 l 5xce
 224 70 l 13
 314 49 l 29
 307 0 l 21
 24 0 l 13
 31 48 l 29
 123 70 l 21
 123 480 l 5
 33 480 l 5
 38 521 l 5
 124 543 l 5
 135 672 242 790 334 790 c 7xae
 409.378 790 438.908 770.76 494 770.76 c 7x96
 513.461 770.76 533.117 773.821 554 781 c 5
 565 764 574 738.553 574 717 c 7x8e
 574 671.986 542.434 643 501 643 c 7x96
 428.826 643 372.184 717 304 717 c 7x8e
EndSplineSet
Fore
SplineSet
531 769 m 1x8e
 546 754 l 1
 546 719 l 1
 546 70 l 1
 643 49 l 1
 636 0 l 1
 355 0 l 1
 362 48 l 1
 445 70 l 1
 445 660 l 1
 419 678 359 716 315 716 c 3
 283 716 224 701 224 583 c 2
 224 534 l 1
 364 534 l 1
 357 480 l 1
 224 480 l 1xd6
 224 70 l 1
 311 49 l 1
 304 0 l 1
 24 0 l 1
 31 48 l 1
 123 70 l 1
 123 480 l 1
 33 480 l 1
 38 521 l 1
 124 543 l 1
 135 672 242 789 334 789 c 3xb6
 417 789 434 768 508 768 c 3
 515 768 523 769 531 769 c 1x8e
EndSplineSet
Validated: 1
LCarets2: 1 356 
Ligature2: "'liga' Standard Ligatures in Latin lookup 0-1" f l
EndChar

StartChar: Uring
Encoding: 366 366 328
Width: 829
VWidth: 0
HStem: -16 72<341.103 546.095> 707 46<13 37.1126 303.211 335 538 563.539 790.523 822> 761.041 21G<465.611 509.731> 891 29<518.885 586.968>
VStem: 117 116<171.292 682> 455 46<774.038 879.502> 610 43<761.983 874.233> 641 76<161.755 682>
LayerCount: 3
Fore
SplineSet
469.712 761.041 m 1xfe
 461.51 776.131 455 794.642 455 816 c 0
 455 872 502 920 559 920 c 0
 617 920 653 879 653 822 c 0xfe
 653 795.313 643.582 770.98 626.803 753 c 1
 829 753 l 1
 822 707 l 1
 721 684 l 1
 717 302 l 2
 714.56 69.0106 591 -16 405 -16 c 0
 291 -16 117 29 117 284 c 2
 117 682 l 1
 5 707 l 1
 13 753 l 1
 341 753 l 1
 335 707 l 1
 233 684 l 1
 233 299 l 2
 233 126 320 56 444 56 c 0
 626 56 640.76 197 641 291 c 2xfd
 642 682 l 1
 532 707 l 1
 538 753 l 1
 555.5 753 l 2
 588.5 753 610 770 610 814 c 0
 610 852 590 891 552 891 c 0
 516 891 501 857 501 823 c 0
 501 808.868 504.771 794.153 510.371 781.361 c 1
 469.712 761.041 l 1xfe
EndSplineSet
Validated: 524289
EndChar

StartChar: uring
Encoding: 367 367 329
Width: 624
VWidth: 0
HStem: -14 83<192.115 321.214> -3 51<572 594> 469 55<315 336.812> 521 20G<22 199 427.334 506> 542 21G<269.456 313.943> 667 31<322.298 393.4>
VStem: 97 102<102.22 447> 258 46<551.251 655.801> 406 100<69.3484 79 98.7121 444> 414 44<544.652 652.691>
LayerCount: 3
Fore
SplineSet
354.334 528.334 m 2xaf80
 381.847 531.365 414 548 414 592 c 0
 414 630 396 667 358 667 c 0
 322 667 304 635 304 601 c 0
 304 585.602 307.291 570.512 313.943 556.972 c 1
 274 542 l 1
 264.912 557.525 258 571.454 258 594 c 0
 258 650 306 698 363 698 c 0
 421 698 458 657 458 600 c 0xaf40
 458 575.474 446 552 427.334 535.333 c 1
 493 541 l 1
 506 526 l 1
 506 130 l 2
 506 66 532 63 572 54 c 2
 599 48 l 1
 594 -3 l 1x5f80
 556 -12 538 -14 502 -14 c 0
 441 -14 413 24 413 74 c 0
 413 77 413 76 413 79 c 1
 406 79 l 1
 351 18 300 -14 232 -14 c 0
 154 -14 97 32 97 162 c 2
 97 447 l 1
 14 480 l 1
 22 528 l 1
 185 541 l 1x9f80
 199 526 l 1
 199 192 l 2
 199 101 238 69 293 69 c 0
 348 69 375 91 406 115 c 1
 406 444 l 1
 309 469 l 1
 315 524 l 1
 354.334 528.334 l 2xaf80
EndSplineSet
Validated: 524289
EndChar

StartChar: dotaccent
Encoding: 729 729 394
Width: 347
VWidth: 0
Flags: W
HStem: 646 143<127.75 230>
VStem: 106 146<668.125 768.474>
LayerCount: 3
Fore
SplineSet
178 789 m 27
 218 789 252 759 252 720 c 27
 252 679 218 646 178 646 c 27
 138 646 106 680 106 721 c 27
 106 760 140 789 178 789 c 27
EndSplineSet
Validated: 1
EndChar

StartChar: notequal
Encoding: 8800 8800 398
Width: 415
VWidth: 0
Flags: W
HStem: 193 64<41 104.417 226.324 366> 338 64<43 205.182 327.809 368>
LayerCount: 3
Fore
SplineSet
304.5 480.919 m 1
 384.5 483 l 1
 327.809 402 l 1
 375 402 l 1
 368 338 l 1
 283.016 338 l 1
 226.324 257 l 1
 373 257 l 1
 366 193 l 1
 181.531 193 l 1
 102.5 80.0811 l 1
 24.5 78 l 1
 104.417 193 l 1
 34 193 l 1
 41 257 l 1
 148.892 257 l 1
 205.182 338 l 1
 36 338 l 1
 43 402 l 1
 249.657 402 l 1
 304.5 480.919 l 1
EndSplineSet
Validated: 524289
EndChar

StartChar: fish
Encoding: 65521 65521 399
Width: 1724
VWidth: 0
LigCaretCntFixed: 1
Flags: W
HStem: -22 55<816.965 938.317> -1 65.3611<552.234 628.142> -1 48<31 48.4298 296.949 307 365 381.293 1105 1122.62 1370.14 1380 1436 1452.28 1690.53 1701> 462 83<1385.97 1482.2> 479 54<224 370.504> 479 41<38 66.0204> 492 53<808.266 911.424> 642 128<428.05 553.553> 670 33<1069.95 1199> 716 73<262.314 374.489> 764 24<1313.49 1364.07>
VStem: 123 101<69 479 542 623.957> 451 101<69 445> 711 79<374.481 460.703> 962 86<67.4124 227.545> 978 41<530.822 633.386> 1198 100<69 427.796 468.125 670> 1365 69<727.025 763.619> 1520 100<68 423.062>
LayerCount: 3
Back
SplineSet
1181 698 m 4x847d80
 1240 699 1264.5 708.481 1314 718 c 4
 1340 723 1364.63 742.086 1364.63 752.369 c 7
 1364.63 759.727 1356.44 765 1341 765 c 7
 1314.69 765 1298 627 1298 558 c 14
 1298 515 l 21x84fd80
 1288 451 l 5x84fb80
 1295 451 l 5
 1345 507 1405 546 1473 546 c 4
 1557 546 1620 510 1620 363 c 6
 1620 69 l 5
 1708 48 l 5
 1701 0 l 5
 1429 0 l 5
 1436 45 l 5
 1518 69 l 5
 1520 347 l 6
 1520 348 1520 350 1520 351 c 4
 1520 437 1463 463 1415 463 c 4
 1380 463 1341 453 1298 409 c 5
 1298 70 l 5
 1387 49 l 5
 1380 0 l 5
 1098 0 l 5
 1105 48 l 5x60fd80
 1198 70 l 5
 1198 472 l 6
 1201.99 624.556 1255 789 1350 789 c 7
 1390.41 789 1412.58 775.502 1412.58 758.199 c 7
 1412.58 737.335 1357 710 1309 696 c 4
 1255.15 680.293 1202 672 1170 669 c 4
 1116.79 664.012 1064.81 676.177 1036 630 c 28
 995.007 564.301 1041 504 1022.08 431.927 c 4
 1017.5 414.471 991.036 386.367 954 383 c 5
 940 436 913 493 865 493 c 4
 807.991 493 790 455 790 424 c 4
 790 311 1048 298 1048 158 c 4
 1048 42.8828 960 -21 867 -21 c 4x84fd80
 789.531 -21 724 6 704 63 c 5
 686 29 633.994 1.24322 580 1 c 6
 358 0 l 5
 365 48 l 5
 451 70 l 5
 451 446 l 5
 349 479 l 5
 224 480 l 5x507d80
 224 70 l 5
 314 49 l 5
 307 0 l 5
 24 0 l 5
 31 48 l 5
 123 70 l 5
 123 480 l 5
 33 480 l 5
 38 521 l 5
 124 543 l 5
 135 672 242 790 334 790 c 4x497d80
 409.378 790 438.908 770.76 494 770.76 c 4x027d80
 513.461 770.76 533.117 773.821 554 781 c 5
 565 764 574 738.553 574 717 c 4x017d80
 574 671.986 542.434 643 501 643 c 4x027d80
 428.826 643 372.184 717 304 717 c 4
 251.914 717 224 656 224 583 c 6
 224 534 l 5x117d80
 343 533.597 l 6
 377.013 533.504 495 537 537 540 c 5
 552 525 l 5
 552 70 l 5
 567 67 l 6
 602.962 59.8077 666.562 75.8002 694 104 c 4
 730 141 745.209 152.351 777 155 c 5
 782 114 803 34 867 34 c 4
 926.136 34 962 61.9619 962 114 c 4
 962 215 711 223 711 385 c 4
 711 465 783 546 872 546 c 4
 944 546 1000.8 513.658 1015 474 c 5
 1003 553 952.354 602.104 996 661 c 28
 1039.81 720.115 1107.43 696.753 1181 698 c 4x847d80
EndSplineSet
Fore
SplineSet
1096 703 m 0x829de0
 1123 703 1153 701 1187 701 c 0
 1192 701 1197 701 1202 701 c 1
 1217 779 1270 788 1350 788 c 0
 1390 788 1434 777 1434 743 c 0
 1434 718 1357 698 1308 687 c 2
 1298 685 l 1
 1298 681 l 1
 1298 514 l 1
 1288 450 l 1
 1295 450 l 1
 1345 506 1405 545 1473 545 c 0
 1557 545 1620 509 1620 362 c 2
 1620 68 l 1
 1708 47 l 1
 1701 -1 l 1
 1429 -1 l 1
 1436 44 l 1
 1518 68 l 1
 1520 346 l 2
 1520 347 1520 349 1520 350 c 0
 1520 436 1463 462 1415 462 c 0
 1380 462 1341 452 1298 408 c 1
 1298 69 l 1
 1387 48 l 1
 1380 -1 l 1
 1098 -1 l 1
 1105 47 l 1
 1198 69 l 1
 1198 649 l 2
 1198 657 1198 664 1199 670 c 1
 1085 660 1019 669 1019 565 c 0x30bde0
 1019 532 1027 498 1027 468 c 0
 1027 400 980 388 954 382 c 1
 940 435 913 492 865 492 c 0
 808 492 790 454 790 423 c 0
 790 310 1048 297 1048 157 c 0
 1048 42 960 -22 867 -22 c 0x829ee0
 790 -22 712 20 697 83 c 1
 685 53 638 -1 506 -1 c 2
 358 -1 l 1
 365 47 l 1
 451 69 l 1
 451 445 l 1
 349 478 l 1
 224 479 l 1x281ee0
 224 69 l 1
 314 48 l 1
 307 -1 l 1
 24 -1 l 1
 31 47 l 1
 123 69 l 1
 123 479 l 1
 33 479 l 1
 38 520 l 1
 124 542 l 1
 135 671 242 789 334 789 c 0x245ee0
 409 789 439 770 494 770 c 0x011ee0
 513 770 533 773 554 780 c 1
 565 763 574 738 574 716 c 0x005ee0
 574 671 542 642 501 642 c 0x011ee0
 429 642 372 716 304 716 c 0
 252 716 224 655 224 582 c 2
 224 533 l 1
 343 533 l 2
 377 533 495 536 537 539 c 1
 552 524 l 1
 552 69 l 1
 567 66 l 2
 572.694 64.8929 579.088 64.3611 585.925 64.3611 c 0x485ee0
 622.318 64.3611 671.27 79.4284 694 103 c 0
 730 140 745 151 777 154 c 1
 782 113 803 33 867 33 c 0
 926 33 962 61 962 113 c 0x801ee0
 962 214 711 222 711 384 c 0
 711 464 783 545 872 545 c 0
 944 545 1001 513 1015 473 c 1
 1005 527 978 567 978 609 c 0
 978 657 1011 703 1096 703 c 0x829de0
1300 713 m 1
 1304 714 1309 716 1314 717 c 0
 1339 724 1365 732 1365 751 c 0
 1365 759 1356 764 1341 764 c 0
 1319 764 1304 755 1300 713 c 1
EndSplineSet
Validated: 524289
Ligature2: "'liga' Standard Ligatures in Latin lookup 0-1" f i s h
Ligature2: "'liga' Standard Ligatures in Latin lookup 0-1" uniF001 s h
LCarets2: 3 339 666 1068 
EndChar

StartChar: quoteright
Encoding: 8217 8217 400
Width: 230
VWidth: 0
Flags: W
HStem: 494 40<25.5952 35.4938>
VStem: 94 121<614.153 744.052>
LayerCount: 3
Fore
SplineSet
10 534 m 21
 72 572 94 626 94 664 c 7
 94 701 78 731 67 739 c 5
 95 766 120 775 144 775 c 7
 186 775 215 739 215 691 c 7
 215 633 169 536 29 494 c 13
 10 534 l 21
EndSplineSet
Validated: 1
EndChar

StartChar: quoteleft
Encoding: 8216 8216 401
Width: 230
VWidth: 0
Flags: W
HStem: 738 40<194.506 204.405>
VStem: 15 121<527.948 657.847>
LayerCount: 3
Fore
SplineSet
220 738 m 17
 158 700 136 646 136 608 c 3
 136 571 152 541 163 533 c 1
 135 506 110 497 86 497 c 3
 44 497 15 533 15 581 c 3
 15 639 61 736 201 778 c 9
 220 738 l 17
EndSplineSet
Validated: 1
EndChar

StartChar: quotesinglbase
Encoding: 8218 8218 402
Width: 230
VWidth: 0
Flags: W
HStem: -147 40<30.5952 40.4938>
VStem: 99 121<-26.5142 103.545>
LayerCount: 3
Fore
SplineSet
15 -107 m 17
 77 -69 99 -15 99 24 c 3
 99 60 83 90 72 99 c 1
 100 125 125 134 149 134 c 3
 191 134 220 99 220 50 c 3
 220 -7 174 -105 34 -147 c 9
 15 -107 l 17
EndSplineSet
Validated: 1
EndChar

StartChar: quotereversed
Encoding: 8219 8219 403
Width: 225
VWidth: 0
Flags: W
HStem: 494 40<184.506 194.405>
VStem: 5 121<614.153 744.052>
LayerCount: 3
Fore
SplineSet
210 534 m 9
 191 494 l 17
 51 536 5 633 5 691 c 3
 5 739 34 775 76 775 c 3
 100 775 125 766 153 739 c 1
 142 731 126 701 126 664 c 3
 126 626 148 572 210 534 c 9
EndSplineSet
Validated: 1
EndChar

StartChar: quotedblleft
Encoding: 8220 8220 404
Width: 384
VWidth: 0
Flags: W
HStem: 738 40<194.506 204.405 348.506 358.405>
VStem: 15 121<527.948 657.847> 169 121<527.948 657.847>
LayerCount: 3
Fore
SplineSet
374 738 m 21
 312 700 290 646 290 608 c 7
 290 571 306 541 317 533 c 5
 289 506 264 497 240 497 c 7
 198 497 169 533 169 581 c 7
 169 639 215 736 355 778 c 13
 374 738 l 21
220 738 m 21
 158 700 136 646 136 608 c 7
 136 571 152 541 163 533 c 5
 135 506 110 497 86 497 c 7
 44 497 15 533 15 581 c 7
 15 639 61 736 201 778 c 13
 220 738 l 21
EndSplineSet
Validated: 1
EndChar

StartChar: quotedblright
Encoding: 8221 8221 405
Width: 384
VWidth: 0
Flags: W
HStem: 495 40<25.5952 35.4938 179.595 189.494>
VStem: 94 121<615.153 745.052> 248 121<615.153 745.052>
LayerCount: 3
Back
SplineSet
10 534 m 21
 72 572 94 626 94 664 c 7
 94 701 78 731 67 739 c 5
 95 766 120 775 144 775 c 7
 186 775 215 739 215 691 c 7
 215 633 169 536 29 494 c 13
 10 534 l 21
EndSplineSet
Fore
SplineSet
10 535 m 17
 72 573 94 627 94 665 c 3
 94 702 78 732 67 740 c 1
 95 767 120 776 144 776 c 3
 186 776 215 740 215 692 c 3
 215 634 169 537 29 495 c 9
 10 535 l 17
164 535 m 17
 226 573 248 627 248 665 c 3
 248 702 232 732 221 740 c 1
 249 767 274 776 298 776 c 3
 340 776 369 740 369 692 c 3
 369 634 323 537 183 495 c 9
 164 535 l 17
EndSplineSet
Validated: 1
EndChar

StartChar: thorn
Encoding: 254 254 406
Width: 609
VWidth: 0
Flags: W
HStem: -222 48<17 46.9753 271.373 295> -8 64<244.891 377.627> 464 79<287.583 386.848> 742 20G<24 210>
VStem: 109 99<-152 428.188 467.488 671> 443 114<159.881 394.571>
LayerCount: 3
Fore
SplineSet
108 671 m 25
 16 703 l 25
 24 749 l 17
 195 762 l 1
 210 748 l 1
 210 514 l 1
 201 451 l 1
 208 451 l 1
 244 491 291 543 371 543 c 3
 474 543 557 449 557 284 c 3
 557 115 447 -8 306 -8 c 3
 286 -8 265 -6 245 1 c 1
 243 12 241 26 241 40 c 3
 241 45 242 57 243 62 c 1
 261 58 279 56 296 56 c 3
 423 56 443 158 443 247 c 3
 443 391 404 464 328 464 c 3
 276 464 235 437 208 409 c 9
 208 -152 l 9
 302 -173 l 25
 295 -222 l 17
 12 -222 l 9
 17 -174 l 25
 109 -152 l 25
 108 671 l 25
EndSplineSet
Validated: 1
EndChar

StartChar: Thorn
Encoding: 222 222 407
Width: 616
VWidth: 0
Flags: W
HStem: -1 45<20 46.112 345.654 373> 157 55<276.064 407.263> 561 59<238 399.634> 707 46<18 43.5392 308.9 341>
VStem: 122 116<73 558.906 617.629 682> 491 125<300.1 473.626>
LayerCount: 3
Fore
SplineSet
122 72 m 1
 122 682 l 1
 12 707 l 1
 18 753 l 1
 347 753 l 1
 341 707 l 1
 238 684 l 1
 238 617.629 l 1
 262.963 619.125 288.128 620 313 620 c 0
 471 620 616 577 616 400 c 0
 616 256 494 157 347 157 c 0
 325 157 302 158 277 161 c 1
 272 176 267 188 267 212 c 1
 278 211 288 212 298 212 c 0
 428 212 491 270 491 378 c 0
 491 481 434 561 302 561 c 0
 277 561 238 557 238 557 c 1
 238 73 l 1
 381 50 l 1
 373 -1 l 1
 14 -1 l 1
 20 44 l 1
 122 72 l 1
EndSplineSet
Validated: 524289
EndChar

StartChar: eth
Encoding: 240 240 408
Width: 578
VWidth: 0
Flags: W
HStem: -16 59<241.528 370.107> 518 56<218.134 331.875>
VStem: 50 108<158.716 401.549> 423 105<149.744 384.583>
LayerCount: 3
Back
SplineSet
166 302 m 5
 168 137 227 43 311 43 c 4
 405 43 431 127 431 257 c 4
 431 414 373 518 288 518 c 4
 200 518 166 432 166 302 c 5
538 282 m 4
 538 95 427 -16 297 -16 c 4
 129 -16 60 126 60 273 c 4
 60 452 168 574 308 574 c 4
 332.483 574 355.13 571.192 375.884 565.665 c 5
 345.188 647.5 310.687 702.696 297 725 c 5
 339 760 l 5
 370 731 538 594 538 282 c 4
EndSplineSet
Fore
SplineSet
528 282 m 0
 528 95 419 -16 289 -16 c 0
 121 -16 50 126 50 273 c 0
 50 452 159 574 288 574 c 0
 312.047 574 364.5 564.667 381.5 519.334 c 1
 386 519.667 l 1
 372.609 562.216 345.889 605.998 319.439 648.715 c 1
 189.31 623.988 l 1
 195 670 l 1
 297.231 690.371 l 1
 269.07 730.364 238.979 765.32 212.5 789 c 1
 283 789 l 1
 302.99 776.803 337.789 750.485 375.067 708.881 c 1
 466 727 l 1
 460.31 680.988 l 1
 406.698 670.306 l 1
 469.709 586.305 528 458.686 528 282 c 0
158 302 m 1
 160 137 219 43 303 43 c 0
 397 43 423 127 423 257 c 0
 423 399 350 516 280 518 c 0
 192.036 520.513 158 432 158 302 c 1
EndSplineSet
Validated: 524321
EndChar

StartChar: Eth
Encoding: 208 208 409
Width: 800
VWidth: 0
Flags: W
HStem: 0 63<239 474.389> 0 45<19 41.5901> 687 46<24 60.4151> 701 62<241.707 441.572>
VStem: 123 116<78 344.743 407.486 669> 650 130<278.459 493.563>
LayerCount: 3
Fore
SplineSet
780 399 m 0x1c
 780 202 620 0 321 0 c 2x9c
 11 0 l 1
 19 45 l 1
 123 78 l 1
 123 344.743 l 1
 14 336 l 1
 21 392 l 1
 123 400.182 l 1
 123 669 l 1
 19 687 l 1
 24 733 l 1x6c
 143 752 247 763 335 763 c 0
 675 763 780 586 780 399 c 0x1c
239 352.048 m 1
 239 63 l 1
 367 63 l 2
 566 63 650 207 650 362 c 0
 650 548 539 701 313 701 c 0
 288 701 264 700 239 697 c 1
 239 407.486 l 1
 395 420 l 1
 388 364 l 1
 239 352.048 l 1
EndSplineSet
Validated: 524289
EndChar

StartChar: ae
Encoding: 230 230 410
Width: 764
VWidth: 0
Flags: W
HStem: -15 66<127 249.97 510.048 655.188> 248 45<227.844 319> 485 59<170.51 278.598 477.876 585.724>
VStem: 40 106<65.2442 173.705> 65 83<399.242 463.25> 319 99<159.518 248 307 408.046> 613 107<328.45 457.303>
LayerCount: 3
Fore
SplineSet
319 248 m 17xf6
 167 224 146 181 146 123 c 3
 146 74 170 51 214 51 c 3
 263 51 319 96 319 147 c 2
 319 248 l 17xf6
418 307 m 9
 608 329 l 1
 611 339 613 362 613 372 c 3
 613 444 586 485 528 485 c 3
 479 485 424 425 418 307 c 9
347.157 106.115 m 1
 318.08 41.1706 245.458 -15 159 -15 c 0
 95 -15 40 21 40 95 c 0xf6
 40 184 100 253 319 293 c 1
 319 327 l 2
 319 409 299 485 219 485 c 0
 161 485 157 443 148 368 c 1
 116 368 65 371 65 431 c 0xee
 65 497 184 546 268 546 c 0
 336.434 546 372.747 521.107 390.169 470.302 c 1
 437.723 518.445 499.722 544 558 544 c 0
 646 544 720 480 720 352 c 0
 720 333 714 291 709 270 c 1
 418 258 l 1
 423 163 473 52 586 52 c 0
 629 52 661 60 724 94 c 1
 736 63 l 1
 688 13 617 -18 537 -18 c 0
 467.923 -18 398.846 16.1465 355.131 83.9941 c 0
 351.786 89.1862 349.169 96.7716 347.157 106.115 c 1
EndSplineSet
Validated: 524289
EndChar

StartChar: AE
Encoding: 198 198 411
Width: 1025
VWidth: 0
Flags: W
HStem: 0 58<634 915> 0 45<261.871 281 423 448.856> 286 57.5<338.096 523.5> 355 57<634 781> 698 55<634 899>
VStem: 524 110<73.2949 286 343.5 355 412 640.738> 801 52<257 286.349> 924 52<570 606.7>
LayerCount: 3
Fore
SplineSet
524.835 640.738 m 1x3f
 338.096 343.5 l 1
 523.5 343.5 l 1
 524.835 640.738 l 1x3f
524.313 286 m 1
 306 286 l 1
 175 76 l 1
 288 50 l 1
 281 1 l 1
 5 1 l 1
 11 46 l 1
 93 79 l 1
 525 753 l 1
 995 753 l 1
 976 562 l 1
 924 570 l 1
 899 698 l 1
 634 698 l 1
 634 412 l 1
 790 412 l 1
 816 486 l 1
 873 490 l 1
 853 257 l 1
 801 248 l 1
 781 355 l 1
 634 355 l 1
 634 58 l 1
 915 58 l 1xbf
 975 199 l 1
 1024 190 l 1
 1006 0 l 1x7f
 717 0 l 1xbf
 449.5 0 l 1
 418 0 l 1
 423 45 l 1x7f
 522.408 72.5586 l 1
 524 73.2949 l 1
 524.313 286 l 1
EndSplineSet
Validated: 524289
EndChar

StartChar: dotlessi
Encoding: 305 305 412
Width: 347
VWidth: 0
Flags: W
HStem: 0 48<37 66.9753 295.396 320> 520 20G<45 230>
VStem: 129 101<70 447>
LayerCount: 3
Fore
SplineSet
37 48 m 25
 129 70 l 25
 129 447 l 25
 37 480 l 25
 45 526 l 17
 215 540 l 1
 230 525 l 1
 230 70 l 9
 327 49 l 25
 320 0 l 17
 30 0 l 9
 37 48 l 25
EndSplineSet
Validated: 1
EndChar

StartChar: divide
Encoding: 247 247 414
Width: 413
VWidth: 0
Flags: W
HStem: 90 143<151.375 253.5> 302 64<24 389> 431 143<151.375 253.5>
VStem: 130 145<111.625 213.125 452.625 554.125>
LayerCount: 3
Fore
SplineSet
202 574 m 27
 242 574 275 544 275 505 c 27
 275 464 242 431 202 431 c 27
 162 431 130 465 130 506 c 27
 130 545 163 574 202 574 c 27
202 233 m 27
 242 233 275 203 275 164 c 27
 275 123 242 90 202 90 c 27
 162 90 130 124 130 165 c 27
 130 204 163 233 202 233 c 27
24 366 m 17
 396 366 l 1
 389 302 l 1
 17 302 l 9
 24 366 l 17
EndSplineSet
Validated: 1
EndChar

StartChar: multiply
Encoding: 215 215 415
Width: 345
VWidth: 0
Flags: W
HStem: 137.725 280.964
VStem: 31.7607 283.064
LayerCount: 3
Back
SplineSet
205 248 m 5
 206 125 l 5
 139 132 l 5
 139 248 l 5
 25 248 l 5
 32 309 l 5
 139 309 l 5
 139 429 l 5
 204 422 l 5
 205 309 l 5
 318 309 l 5
 311 248 l 5
 205 248 l 5
EndSplineSet
Fore
SplineSet
171.627 234.618 m 1
 72.0654 137.725 l 1
 31.7607 187.93 l 1
 126.387 279.858 l 1
 31.5176 374.728 l 1
 81.7227 415.032 l 1
 174.941 321.813 l 1
 274.521 418.689 l 1
 314.825 368.484 l 1
 220.244 276.511 l 1
 316.482 180.272 l 1
 266.277 139.968 l 1
 171.627 234.618 l 1
EndSplineSet
Validated: 524289
EndChar

StartChar: Oslash
Encoding: 216 216 416
Width: 808
VWidth: 0
Flags: W
HStem: -16 64<316.715 518.626> 712 59<292.608 494.983>
VStem: 30 134<244.191 516.998> 654 133<243.678 502.634>
LayerCount: 3
Fore
SplineSet
787 375 m 0
 787 166 639 -16 387 -16 c 0
 312.79 -16 246.27 5.68526 191.336 43.46 c 1
 143 -29 l 1
 50 -34 l 1
 134.286 92.8169 l 1
 68.6289 163.499 30 263.116 30 375 c 0
 30 608 188 771 429 771 c 0
 481.486 771 529.377 760.431 571.861 741.441 c 1
 602 783 l 1
 697 788 l 1
 637.378 702.472 l 1
 732.267 630.037 787 508.031 787 375 c 0
400 712 m 0
 218 712 164 568 164 410 c 0
 164 333.588 175.978 256.071 204.523 192.478 c 1
 523.439 672.32 l 1
 489.332 697.292 448.285 712 400 712 c 0
577.762 616.748 m 1
 248.099 122.555 l 1
 287.559 76.7669 342.665 48 417 48 c 0
 601 48 654 198 654 347 c 0
 654 443.519 629.384 545.269 577.762 616.748 c 1
EndSplineSet
Validated: 524289
EndChar

StartChar: oslash
Encoding: 248 248 417
Width: 580
VWidth: 0
Flags: W
HStem: -16 59<239.037 361.742> 485 61<216.485 331.26>
VStem: 51 110<148.387 384.492> 418 111<143.194 385.096>
LayerCount: 3
Fore
SplineSet
529 267 m 0
 529 98 427 -16 286 -16 c 0
 254.086 -16 225.554 -11.3053 200.324 -2.55082 c 1
 184 -38 l 1
 106 -43 l 1
 138.886 31.5294 l 1
 79.5141 80.07 51 161.811 51 258 c 0
 51 446 168 546 301 546 c 0
 323.387 546 344.193 543.472 363.389 538.608 c 1
 377 571 l 1
 457 576 l 1
 428.696 509.159 l 1
 494.707 463.182 529 377.028 529 267 c 0
331.822 470.624 m 1
 316.083 479.971 298.413 485 279 485 c 0
 204 485 161 418 161 287 c 0
 161 225.297 171.395 172.404 189.449 131.796 c 1
 331.822 470.624 l 1
384.294 411.386 m 1
 237.877 65.616 l 1
 256.552 50.903 277.88 43 301 43 c 0
 379 43 418 116 418 246 c 0
 418 311.883 406.148 369.333 384.294 411.386 c 1
EndSplineSet
Validated: 524289
EndChar
